<?xml version="1.0" encoding="UTF-8" standalone="no"?>
<!DOCTYPE svg PUBLIC "-//W3C//DTD SVG 1.1//EN"
 "http://www.w3.org/Graphics/SVG/1.1/DTD/svg11.dtd">
<!-- Generated by graphviz version 2.46.1 (20210213.1702)
 -->
<!-- Title: パッケージ関連図 Pages: 1 -->
<svg width="1973pt" height="625pt"
 viewBox="0.00 0.00 1972.90 625.00" xmlns="http://www.w3.org/2000/svg" xmlns:xlink="http://www.w3.org/1999/xlink">
<g id="graph0" class="graph" transform="scale(1 1) rotate(0) translate(4 621)">
<title>パッケージ関連図</title>
<polygon fill="white" stroke="transparent" points="-4,4 -4,-621 1968.9,-621 1968.9,4 -4,4"/>
<text text-anchor="middle" x="982.45" y="-7.8" font-family="Times,serif" font-size="14.00">パッケージ関連図</text>
<g id="clust1" class="cluster">
<title>cluster_com.example.rail.domain.model.faresystem.rule</title>
<polygon fill="lemonchiffon" stroke="#eedd82" stroke-width="2" points="350,-231 350,-423 881,-423 881,-231 350,-231"/>
<text text-anchor="middle" x="615.5" y="-407.8" font-family="Times,serif" font-size="14.00">ルール</text>
<text text-anchor="middle" x="615.5" y="-392.8" font-family="Times,serif" font-size="14.00">faresystem.rule</text>
</g>
<g id="clust2" class="cluster">
<title>cluster_com.example.rail.domain.model.faresystem.factor</title>
<polygon fill="lemonchiffon" stroke="#eedd82" stroke-width="2" points="1193,-131 1193,-223 1852,-223 1852,-131 1193,-131"/>
<text text-anchor="middle" x="1522.5" y="-207.8" font-family="Times,serif" font-size="14.00">ファクター</text>
<text text-anchor="middle" x="1522.5" y="-192.8" font-family="Times,serif" font-size="14.00">faresystem.factor</text>
</g>
<g id="clust3" class="cluster">
<title>cluster_com.example.rail.domain.model.calculation.fare</title>
<polygon fill="lemonchiffon" stroke="#eedd82" stroke-width="2" points="20,-331 20,-423 196,-423 196,-331 20,-331"/>
<text text-anchor="middle" x="108" y="-407.8" font-family="Times,serif" font-size="14.00">【運賃計算】運賃</text>
<text text-anchor="middle" x="108" y="-392.8" font-family="Times,serif" font-size="14.00">calculation.fare</text>
</g>
<g id="clust4" class="cluster">
<title>cluster_com.example.rail.domain.model.faresystem.pricing</title>
<polygon fill="lemonchiffon" stroke="#eedd82" stroke-width="2" points="889,-231 889,-323 1448,-323 1448,-231 889,-231"/>
<text text-anchor="middle" x="1168.5" y="-307.8" font-family="Times,serif" font-size="14.00">価格設定</text>
<text text-anchor="middle" x="1168.5" y="-292.8" font-family="Times,serif" font-size="14.00">faresystem.pricing</text>
</g>
<g id="clust5" class="cluster">
<title>cluster_com.example.rail.domain.model.faresystem._foundation</title>
<polygon fill="lemonchiffon" stroke="#eedd82" stroke-width="2" points="842,-31 842,-123 1104,-123 1104,-31 842,-31"/>
<text text-anchor="middle" x="973" y="-107.8" font-family="Times,serif" font-size="14.00">基礎型</text>
<text text-anchor="middle" x="973" y="-92.8" font-family="Times,serif" font-size="14.00">faresystem._foundation</text>
</g>
<!-- summary -->
<g id="node1" class="node">
<title>summary</title>
<polygon fill="none" stroke="black" points="1627.5,-617 1510.5,-617 1510.5,-579 1633.5,-579 1633.5,-611 1627.5,-617"/>
<polyline fill="none" stroke="black" points="1627.5,-617 1627.5,-611 "/>
<polyline fill="none" stroke="black" points="1633.5,-611 1627.5,-611 "/>
<text text-anchor="start" x="1518.5" y="-601.8" font-family="Times,serif" font-size="14.00">パッケージ数: 20</text>
<text text-anchor="start" x="1518.5" y="-586.8" font-family="Times,serif" font-size="14.00">関連数: 59</text>
</g>
<!-- com.example.rail.domain.model.faresystem.rule.express -->
<g id="node2" class="node">
<title>com.example.rail.domain.model.faresystem.rule.express</title>
<polygon fill="#eedd82" stroke="black" points="666.5,-377 521.5,-377 521.5,-339 666.5,-339 666.5,-377"/>
<text text-anchor="middle" x="594" y="-361.8" font-family="Times,serif" font-size="14.00">【ルール】特急料金</text>
<text text-anchor="middle" x="594" y="-346.8" font-family="Times,serif" font-size="14.00">express</text>
</g>
<!-- com.example.rail.domain.model.faresystem.pricing.discount -->
<g id="node3" class="node">
<title>com.example.rail.domain.model.faresystem.pricing.discount</title>
<polygon fill="#eedd82" stroke="black" points="1028.5,-277 897.5,-277 897.5,-239 1028.5,-239 1028.5,-277"/>
<text text-anchor="middle" x="963" y="-261.8" font-family="Times,serif" font-size="14.00">【価格設定】割引</text>
<text text-anchor="middle" x="963" y="-246.8" font-family="Times,serif" font-size="14.00">discount</text>
</g>
<!-- com.example.rail.domain.model.faresystem.rule.express&#45;&gt;com.example.rail.domain.model.faresystem.pricing.discount -->
<g id="edge1" class="edge">
<title>com.example.rail.domain.model.faresystem.rule.express&#45;&gt;com.example.rail.domain.model.faresystem.pricing.discount</title>
<path fill="none" stroke="black" d="M643.77,-338.88C654.29,-335.71 665.41,-332.85 676,-331 721.79,-323.02 841.55,-339.49 885,-323 906.14,-314.98 925.8,-298.77 940.09,-284.68"/>
<polygon fill="black" stroke="black" points="942.97,-286.73 947.45,-277.13 937.96,-281.84 942.97,-286.73"/>
</g>
<!-- com.example.rail.domain.model.faresystem.factor.route -->
<g id="node13" class="node">
<title>com.example.rail.domain.model.faresystem.factor.route</title>
<polygon fill="#eedd82" stroke="black" points="1344.5,-177 1201.5,-177 1201.5,-139 1344.5,-139 1344.5,-177"/>
<text text-anchor="middle" x="1273" y="-161.8" font-family="Times,serif" font-size="14.00">【ファクター】経路</text>
<text text-anchor="middle" x="1273" y="-146.8" font-family="Times,serif" font-size="14.00">route</text>
</g>
<!-- com.example.rail.domain.model.faresystem.rule.express&#45;&gt;com.example.rail.domain.model.faresystem.factor.route -->
<g id="edge48" class="edge">
<title>com.example.rail.domain.model.faresystem.rule.express&#45;&gt;com.example.rail.domain.model.faresystem.factor.route</title>
<path fill="none" stroke="black" d="M642.86,-338.91C653.63,-335.66 665.09,-332.75 676,-331 686.64,-329.3 1444.42,-330.66 1452,-323 1480.76,-293.94 1479.71,-261.07 1452,-231 1437.19,-214.93 1374.33,-231 1354,-223 1332.41,-214.5 1311.95,-198.24 1296.99,-184.23"/>
<polygon fill="black" stroke="black" points="1299.31,-181.61 1289.69,-177.16 1294.44,-186.63 1299.31,-181.61"/>
</g>
<!-- com.example.rail.domain.model.faresystem._foundation.monetary -->
<g id="node14" class="node">
<title>com.example.rail.domain.model.faresystem._foundation.monetary</title>
<polygon fill="#eedd82" stroke="black" points="924,-77 850,-77 850,-39 924,-39 924,-77"/>
<text text-anchor="middle" x="887" y="-61.8" font-family="Times,serif" font-size="14.00">金銭関連</text>
<text text-anchor="middle" x="887" y="-46.8" font-family="Times,serif" font-size="14.00">monetary</text>
</g>
<!-- com.example.rail.domain.model.faresystem.rule.express&#45;&gt;com.example.rail.domain.model.faresystem._foundation.monetary -->
<g id="edge27" class="edge">
<title>com.example.rail.domain.model.faresystem.rule.express&#45;&gt;com.example.rail.domain.model.faresystem._foundation.monetary</title>
<path fill="none" stroke="black" d="M644.24,-338.93C654.63,-335.8 665.58,-332.94 676,-331 690.34,-328.33 795.56,-332.04 807,-323 826,-307.99 864.91,-151.93 880.41,-87.05"/>
<polygon fill="black" stroke="black" points="883.87,-87.64 882.78,-77.1 877.06,-86.02 883.87,-87.64"/>
</g>
<!-- com.example.rail.domain.model.faresystem.pricing.byRoute -->
<g id="node20" class="node">
<title>com.example.rail.domain.model.faresystem.pricing.byRoute</title>
<polygon fill="#eedd82" stroke="black" points="1219.5,-277 1046.5,-277 1046.5,-239 1219.5,-239 1219.5,-277"/>
<text text-anchor="middle" x="1133" y="-261.8" font-family="Times,serif" font-size="14.00">【価格設定】経路ベース</text>
<text text-anchor="middle" x="1133" y="-246.8" font-family="Times,serif" font-size="14.00">byRoute</text>
</g>
<!-- com.example.rail.domain.model.faresystem.rule.express&#45;&gt;com.example.rail.domain.model.faresystem.pricing.byRoute -->
<g id="edge32" class="edge">
<title>com.example.rail.domain.model.faresystem.rule.express&#45;&gt;com.example.rail.domain.model.faresystem.pricing.byRoute</title>
<path fill="none" stroke="black" d="M643.31,-338.87C653.96,-335.67 665.25,-332.79 676,-331 715.69,-324.41 999.65,-335.18 1038,-323 1063.15,-315.01 1087.75,-298.12 1105.61,-283.69"/>
<polygon fill="black" stroke="black" points="1107.87,-286.36 1113.32,-277.27 1103.4,-280.98 1107.87,-286.36"/>
</g>
<!-- com.example.rail.domain.model.faresystem.factor.equipment -->
<g id="node21" class="node">
<title>com.example.rail.domain.model.faresystem.factor.equipment</title>
<polygon fill="#eedd82" stroke="black" points="1843.5,-177 1700.5,-177 1700.5,-139 1843.5,-139 1843.5,-177"/>
<text text-anchor="middle" x="1772" y="-161.8" font-family="Times,serif" font-size="14.00">【ファクター】設備</text>
<text text-anchor="middle" x="1772" y="-146.8" font-family="Times,serif" font-size="14.00">equipment</text>
</g>
<!-- com.example.rail.domain.model.faresystem.rule.express&#45;&gt;com.example.rail.domain.model.faresystem.factor.equipment -->
<g id="edge28" class="edge">
<title>com.example.rail.domain.model.faresystem.rule.express&#45;&gt;com.example.rail.domain.model.faresystem.factor.equipment</title>
<path fill="none" stroke="black" d="M642.86,-338.9C653.63,-335.65 665.09,-332.74 676,-331 699.51,-327.25 1510.84,-331.7 1533,-323 1589.52,-300.81 1579.04,-256.81 1634,-231 1657.15,-220.12 1667.48,-233.06 1691,-223 1712.19,-213.94 1732.53,-197.83 1747.53,-184.05"/>
<polygon fill="black" stroke="black" points="1750.01,-186.52 1754.86,-177.1 1745.19,-181.44 1750.01,-186.52"/>
</g>
<!-- com.example.rail.domain.model.faresystem.factor.date -->
<g id="node4" class="node">
<title>com.example.rail.domain.model.faresystem.factor.date</title>
<polygon fill="#eedd82" stroke="black" points="1505.5,-177 1362.5,-177 1362.5,-139 1505.5,-139 1505.5,-177"/>
<text text-anchor="middle" x="1434" y="-161.8" font-family="Times,serif" font-size="14.00">【ファクター】日付</text>
<text text-anchor="middle" x="1434" y="-146.8" font-family="Times,serif" font-size="14.00">date</text>
</g>
<!-- com.example.rail.domain.model.faresystem.pricing.discount&#45;&gt;com.example.rail.domain.model.faresystem.factor.date -->
<g id="edge2" class="edge">
<title>com.example.rail.domain.model.faresystem.pricing.discount&#45;&gt;com.example.rail.domain.model.faresystem.factor.date</title>
<path fill="none" stroke="black" d="M1008.01,-238.89C1017.75,-235.68 1028.1,-232.8 1038,-231 1072.56,-224.73 1321.01,-235.04 1354,-223 1375.77,-215.05 1396.1,-198.62 1410.82,-184.39"/>
<polygon fill="black" stroke="black" points="1413.4,-186.76 1417.98,-177.21 1408.44,-181.82 1413.4,-186.76"/>
</g>
<!-- com.example.rail.domain.model.faresystem._foundation.datetime -->
<g id="node11" class="node">
<title>com.example.rail.domain.model.faresystem._foundation.datetime</title>
<polygon fill="#eedd82" stroke="black" points="1096,-77 1022,-77 1022,-39 1096,-39 1096,-77"/>
<text text-anchor="middle" x="1059" y="-61.8" font-family="Times,serif" font-size="14.00">日時関連</text>
<text text-anchor="middle" x="1059" y="-46.8" font-family="Times,serif" font-size="14.00">datetime</text>
</g>
<!-- com.example.rail.domain.model.faresystem.pricing.discount&#45;&gt;com.example.rail.domain.model.faresystem._foundation.datetime -->
<g id="edge21" class="edge">
<title>com.example.rail.domain.model.faresystem.pricing.discount&#45;&gt;com.example.rail.domain.model.faresystem._foundation.datetime</title>
<path fill="none" stroke="black" d="M971.86,-238.73C988.79,-203.81 1025.82,-127.42 1045.73,-86.38"/>
<polygon fill="black" stroke="black" points="1048.95,-87.75 1050.16,-77.23 1042.65,-84.7 1048.95,-87.75"/>
</g>
<!-- com.example.rail.domain.model.faresystem.pricing.discount&#45;&gt;com.example.rail.domain.model.faresystem._foundation.monetary -->
<g id="edge11" class="edge">
<title>com.example.rail.domain.model.faresystem.pricing.discount&#45;&gt;com.example.rail.domain.model.faresystem._foundation.monetary</title>
<path fill="none" stroke="black" d="M955.99,-238.73C942.61,-203.88 913.39,-127.75 897.61,-86.64"/>
<polygon fill="black" stroke="black" points="900.85,-85.31 894,-77.23 894.31,-87.82 900.85,-85.31"/>
</g>
<!-- com.example.rail.domain.model.faresystem.factor.date&#45;&gt;com.example.rail.domain.model.faresystem._foundation.datetime -->
<g id="edge40" class="edge">
<title>com.example.rail.domain.model.faresystem.factor.date&#45;&gt;com.example.rail.domain.model.faresystem._foundation.datetime</title>
<path fill="none" stroke="black" d="M1380.38,-138.96C1371.6,-136.19 1362.57,-133.43 1354,-131 1267.17,-106.33 1164.53,-82.45 1106.06,-69.34"/>
<polygon fill="black" stroke="black" points="1106.55,-65.86 1096.02,-67.1 1105.02,-72.7 1106.55,-65.86"/>
</g>
<!-- com.example.rail.domain.model.faresystem.rule.pax -->
<g id="node5" class="node">
<title>com.example.rail.domain.model.faresystem.rule.pax</title>
<polygon fill="#eedd82" stroke="black" points="517.5,-277 358.5,-277 358.5,-239 517.5,-239 517.5,-277"/>
<text text-anchor="middle" x="438" y="-261.8" font-family="Times,serif" font-size="14.00">【ルール】適用乗客数</text>
<text text-anchor="middle" x="438" y="-246.8" font-family="Times,serif" font-size="14.00">pax</text>
</g>
<!-- com.example.rail.domain.model.faresystem.factor.passenger -->
<g id="node6" class="node">
<title>com.example.rail.domain.model.faresystem.factor.passenger</title>
<polygon fill="#eedd82" stroke="black" points="1682,-177 1524,-177 1524,-139 1682,-139 1682,-177"/>
<text text-anchor="middle" x="1603" y="-161.8" font-family="Times,serif" font-size="14.00">【ファクター】乗客数</text>
<text text-anchor="middle" x="1603" y="-146.8" font-family="Times,serif" font-size="14.00">passenger</text>
</g>
<!-- com.example.rail.domain.model.faresystem.rule.pax&#45;&gt;com.example.rail.domain.model.faresystem.factor.passenger -->
<g id="edge3" class="edge">
<title>com.example.rail.domain.model.faresystem.rule.pax&#45;&gt;com.example.rail.domain.model.faresystem.factor.passenger</title>
<path fill="none" stroke="black" d="M517.83,-242.61C547.04,-237.98 580.42,-233.42 611,-231 636.03,-229.02 1491.15,-230.87 1515,-223 1538.74,-215.16 1561.45,-198.33 1577.86,-183.89"/>
<polygon fill="black" stroke="black" points="1580.34,-186.36 1585.38,-177.04 1575.63,-181.18 1580.34,-186.36"/>
</g>
<!-- com.example.rail.domain.model.faresystem.rule.pax&#45;&gt;com.example.rail.domain.model.faresystem._foundation.monetary -->
<g id="edge16" class="edge">
<title>com.example.rail.domain.model.faresystem.rule.pax&#45;&gt;com.example.rail.domain.model.faresystem._foundation.monetary</title>
<path fill="none" stroke="black" d="M474.68,-239C526.18,-213.91 623.02,-167.43 707,-131 751.93,-111.51 803.93,-90.92 840.45,-76.77"/>
<polygon fill="black" stroke="black" points="841.79,-80.01 849.86,-73.14 839.27,-73.48 841.79,-80.01"/>
</g>
<!-- com.example.rail.domain.model.faresystem.rule.group -->
<g id="node7" class="node">
<title>com.example.rail.domain.model.faresystem.rule.group</title>
<polygon fill="#eedd82" stroke="black" points="503.5,-377 358.5,-377 358.5,-339 503.5,-339 503.5,-377"/>
<text text-anchor="middle" x="431" y="-361.8" font-family="Times,serif" font-size="14.00">【ルール】団体割引</text>
<text text-anchor="middle" x="431" y="-346.8" font-family="Times,serif" font-size="14.00">group</text>
</g>
<!-- com.example.rail.domain.model.faresystem.rule.group&#45;&gt;com.example.rail.domain.model.faresystem.pricing.discount -->
<g id="edge10" class="edge">
<title>com.example.rail.domain.model.faresystem.rule.group&#45;&gt;com.example.rail.domain.model.faresystem.pricing.discount</title>
<path fill="none" stroke="black" d="M480.31,-338.87C490.96,-335.66 502.24,-332.78 513,-331 553.79,-324.24 846.23,-337.34 885,-323 906.4,-315.08 926.23,-298.65 940.53,-284.41"/>
<polygon fill="black" stroke="black" points="943.05,-286.85 947.49,-277.23 938.02,-281.98 943.05,-286.85"/>
</g>
<!-- com.example.rail.domain.model.faresystem.rule.group&#45;&gt;com.example.rail.domain.model.faresystem.factor.date -->
<g id="edge47" class="edge">
<title>com.example.rail.domain.model.faresystem.rule.group&#45;&gt;com.example.rail.domain.model.faresystem.factor.date</title>
<path fill="none" stroke="black" d="M479.86,-338.89C490.63,-335.64 502.09,-332.74 513,-331 525.88,-328.95 1442.82,-332.26 1452,-323 1487.64,-287.06 1465.5,-222.59 1448.37,-186.11"/>
<polygon fill="black" stroke="black" points="1451.47,-184.49 1443.94,-177.04 1445.18,-187.56 1451.47,-184.49"/>
</g>
<!-- com.example.rail.domain.model.faresystem.rule.group&#45;&gt;com.example.rail.domain.model.faresystem.rule.pax -->
<g id="edge26" class="edge">
<title>com.example.rail.domain.model.faresystem.rule.group&#45;&gt;com.example.rail.domain.model.faresystem.rule.pax</title>
<path fill="none" stroke="black" d="M432.32,-338.57C433.35,-324.1 434.81,-303.72 435.98,-287.21"/>
<polygon fill="black" stroke="black" points="439.49,-287.24 436.71,-277.02 432.51,-286.74 439.49,-287.24"/>
</g>
<!-- com.example.rail.domain.model.faresystem.rule.group&#45;&gt;com.example.rail.domain.model.faresystem.factor.passenger -->
<g id="edge52" class="edge">
<title>com.example.rail.domain.model.faresystem.rule.group&#45;&gt;com.example.rail.domain.model.faresystem.factor.passenger</title>
<path fill="none" stroke="black" d="M479.86,-338.89C490.63,-335.64 502.09,-332.74 513,-331 539.39,-326.8 1451.03,-334.82 1475,-323 1533.23,-294.28 1572.8,-225.03 1591.2,-186.33"/>
<polygon fill="black" stroke="black" points="1594.4,-187.74 1595.42,-177.19 1588.05,-184.8 1594.4,-187.74"/>
</g>
<!-- com.example.rail.domain.model.faresystem.rule.basis -->
<g id="node8" class="node">
<title>com.example.rail.domain.model.faresystem.rule.basis</title>
<polygon fill="#eedd82" stroke="black" points="764.5,-277 619.5,-277 619.5,-239 764.5,-239 764.5,-277"/>
<text text-anchor="middle" x="692" y="-261.8" font-family="Times,serif" font-size="14.00">【ルール】普通運賃</text>
<text text-anchor="middle" x="692" y="-246.8" font-family="Times,serif" font-size="14.00">basis</text>
</g>
<!-- com.example.rail.domain.model.faresystem.rule.group&#45;&gt;com.example.rail.domain.model.faresystem.rule.basis -->
<g id="edge4" class="edge">
<title>com.example.rail.domain.model.faresystem.rule.group&#45;&gt;com.example.rail.domain.model.faresystem.rule.basis</title>
<path fill="none" stroke="black" d="M482.92,-338.93C497.23,-333.86 512.74,-328.29 527,-323 563.81,-309.35 604.98,-293.38 636.99,-280.81"/>
<polygon fill="black" stroke="black" points="638.59,-283.94 646.62,-277.02 636.03,-277.42 638.59,-283.94"/>
</g>
<!-- com.example.rail.domain.model.faresystem.rule.group&#45;&gt;com.example.rail.domain.model.faresystem._foundation.monetary -->
<g id="edge31" class="edge">
<title>com.example.rail.domain.model.faresystem.rule.group&#45;&gt;com.example.rail.domain.model.faresystem._foundation.monetary</title>
<path fill="none" stroke="black" d="M480.32,-338.95C490.97,-335.73 502.25,-332.83 513,-331 527.3,-328.56 762.3,-331.58 774,-323 776.28,-321.33 839.77,-133.54 841,-131 848.58,-115.39 858.84,-99.01 867.75,-85.82"/>
<polygon fill="black" stroke="black" points="870.86,-87.47 873.65,-77.25 865.09,-83.5 870.86,-87.47"/>
</g>
<!-- com.example.rail.domain.model.faresystem.rule.basis&#45;&gt;com.example.rail.domain.model.faresystem.factor.route -->
<g id="edge50" class="edge">
<title>com.example.rail.domain.model.faresystem.rule.basis&#45;&gt;com.example.rail.domain.model.faresystem.factor.route</title>
<path fill="none" stroke="black" d="M764.8,-246.73C800.92,-241.76 845.23,-235.83 885,-231 917.84,-227.01 926.31,-228.09 959,-223 1038.45,-210.64 1128.26,-191.84 1191.42,-177.81"/>
<polygon fill="black" stroke="black" points="1192.33,-181.19 1201.32,-175.6 1190.8,-174.36 1192.33,-181.19"/>
</g>
<!-- com.example.rail.domain.model.faresystem.rule.basis&#45;&gt;com.example.rail.domain.model.faresystem._foundation.monetary -->
<g id="edge44" class="edge">
<title>com.example.rail.domain.model.faresystem.rule.basis&#45;&gt;com.example.rail.domain.model.faresystem._foundation.monetary</title>
<path fill="none" stroke="black" d="M701.67,-238.72C716.06,-212.68 745.08,-164.37 779,-131 798.26,-112.05 823.16,-95.06 844.2,-82.35"/>
<polygon fill="black" stroke="black" points="846.13,-85.28 852.95,-77.17 842.56,-79.25 846.13,-85.28"/>
</g>
<!-- com.example.rail.domain.model.faresystem._foundation.distance -->
<g id="node18" class="node">
<title>com.example.rail.domain.model.faresystem._foundation.distance</title>
<polygon fill="#eedd82" stroke="black" points="1003.5,-77 942.5,-77 942.5,-39 1003.5,-39 1003.5,-77"/>
<text text-anchor="middle" x="973" y="-61.8" font-family="Times,serif" font-size="14.00">距離</text>
<text text-anchor="middle" x="973" y="-46.8" font-family="Times,serif" font-size="14.00">distance</text>
</g>
<!-- com.example.rail.domain.model.faresystem.rule.basis&#45;&gt;com.example.rail.domain.model.faresystem._foundation.distance -->
<g id="edge19" class="edge">
<title>com.example.rail.domain.model.faresystem.rule.basis&#45;&gt;com.example.rail.domain.model.faresystem._foundation.distance</title>
<path fill="none" stroke="black" d="M740.62,-238.82C792.95,-217.39 876.29,-177.65 933,-123 943.9,-112.49 953.11,-98.43 959.94,-86.17"/>
<polygon fill="black" stroke="black" points="963.08,-87.7 964.68,-77.23 956.9,-84.42 963.08,-87.7"/>
</g>
<!-- com.example.rail.domain.model.faresystem.rule.basis&#45;&gt;com.example.rail.domain.model.faresystem.pricing.byRoute -->
<g id="edge57" class="edge">
<title>com.example.rail.domain.model.faresystem.rule.basis&#45;&gt;com.example.rail.domain.model.faresystem.pricing.byRoute</title>
<path fill="none" stroke="black" d="M734.28,-277.02C774.43,-293.98 836.97,-317.53 894,-327 908.8,-329.46 1014.33,-330.11 1029,-327 1058.62,-320.71 1086.89,-300.73 1106.46,-283.88"/>
<polygon fill="black" stroke="black" points="1108.9,-286.4 1114.04,-277.13 1104.24,-281.17 1108.9,-286.4"/>
</g>
<!-- com.example.rail.domain.model.calculation.fare -->
<g id="node9" class="node">
<title>com.example.rail.domain.model.calculation.fare</title>
<polygon fill="#eedd82" stroke="black" points="225.5,-469 94.5,-469 94.5,-431 225.5,-431 225.5,-469"/>
<text text-anchor="middle" x="160" y="-453.8" font-family="Times,serif" font-size="14.00">【運賃計算】運賃</text>
<text text-anchor="middle" x="160" y="-438.8" font-family="Times,serif" font-size="14.00">calculation.fare</text>
</g>
<!-- com.example.rail.domain.model.calculation.fare&#45;&gt;com.example.rail.domain.model.faresystem.rule.pax -->
<g id="edge5" class="edge">
<title>com.example.rail.domain.model.calculation.fare&#45;&gt;com.example.rail.domain.model.faresystem.rule.pax</title>
<path fill="none" stroke="black" d="M192.02,-430.76C194.92,-428.38 197.65,-425.78 200,-423 228.8,-388.96 204.47,-357.94 240,-331 260.73,-315.28 273.01,-330.26 298,-323 332.43,-312.99 369.23,-295.89 396.46,-281.88"/>
<polygon fill="black" stroke="black" points="398.42,-284.81 405.67,-277.08 395.18,-278.6 398.42,-284.81"/>
</g>
<!-- com.example.rail.domain.model.calculation.fare.details -->
<g id="node17" class="node">
<title>com.example.rail.domain.model.calculation.fare.details</title>
<polygon fill="#eedd82" stroke="black" points="187.5,-377 28.5,-377 28.5,-339 187.5,-339 187.5,-377"/>
<text text-anchor="middle" x="108" y="-361.8" font-family="Times,serif" font-size="14.00">【運賃計算】運賃詳細</text>
<text text-anchor="middle" x="108" y="-346.8" font-family="Times,serif" font-size="14.00">details</text>
</g>
<!-- com.example.rail.domain.model.calculation.fare&#45;&gt;com.example.rail.domain.model.calculation.fare.details -->
<g id="edge17" class="edge">
<title>com.example.rail.domain.model.calculation.fare&#45;&gt;com.example.rail.domain.model.calculation.fare.details</title>
<path fill="none" stroke="black" d="M149.48,-430.79C142.08,-417.98 132.05,-400.62 123.7,-386.18"/>
<polygon fill="black" stroke="black" points="126.54,-384.09 118.51,-377.19 120.48,-387.6 126.54,-384.09"/>
</g>
<!-- com.example.rail.domain.model.faresystem.pricing.seasonality -->
<g id="node10" class="node">
<title>com.example.rail.domain.model.faresystem.pricing.seasonality</title>
<polygon fill="#eedd82" stroke="black" points="1440,-277 1238,-277 1238,-239 1440,-239 1440,-277"/>
<text text-anchor="middle" x="1339" y="-261.8" font-family="Times,serif" font-size="14.00">【価格設定】季節性変動料金</text>
<text text-anchor="middle" x="1339" y="-246.8" font-family="Times,serif" font-size="14.00">seasonality</text>
</g>
<!-- com.example.rail.domain.model.faresystem.pricing.seasonality&#45;&gt;com.example.rail.domain.model.faresystem.factor.date -->
<g id="edge22" class="edge">
<title>com.example.rail.domain.model.faresystem.pricing.seasonality&#45;&gt;com.example.rail.domain.model.faresystem.factor.date</title>
<path fill="none" stroke="black" d="M1356.87,-238.57C1371.69,-223.28 1392.92,-201.38 1409.36,-184.42"/>
<polygon fill="black" stroke="black" points="1412.09,-186.64 1416.53,-177.02 1407.06,-181.76 1412.09,-186.64"/>
</g>
<!-- com.example.rail.domain.model.faresystem.pricing.seasonality&#45;&gt;com.example.rail.domain.model.faresystem._foundation.datetime -->
<g id="edge6" class="edge">
<title>com.example.rail.domain.model.faresystem.pricing.seasonality&#45;&gt;com.example.rail.domain.model.faresystem._foundation.datetime</title>
<path fill="none" stroke="black" d="M1264.23,-238.96C1252.45,-236.22 1240.41,-233.49 1229,-231 1211.29,-227.14 1204.47,-232.46 1189,-223 1134.09,-189.41 1092.92,-123.77 1072.77,-86.52"/>
<polygon fill="black" stroke="black" points="1075.64,-84.47 1067.88,-77.26 1069.45,-87.74 1075.64,-84.47"/>
</g>
<!-- com.example.rail.domain.model.faresystem.pricing.seasonality&#45;&gt;com.example.rail.domain.model.faresystem._foundation.monetary -->
<g id="edge33" class="edge">
<title>com.example.rail.domain.model.faresystem.pricing.seasonality&#45;&gt;com.example.rail.domain.model.faresystem._foundation.monetary</title>
<path fill="none" stroke="black" d="M1270.99,-239C1257.18,-235.89 1242.69,-233.01 1229,-231 1199.49,-226.66 1122.6,-234.33 1095,-223 1037.6,-199.44 1046.38,-156.9 990,-131 967.15,-120.5 955.57,-135.92 934,-123 919.49,-114.31 908.09,-99.25 900.16,-85.92"/>
<polygon fill="black" stroke="black" points="903.15,-84.1 895.22,-77.07 897.04,-87.51 903.15,-84.1"/>
</g>
<!-- com.example.rail.domain.model.calculation -->
<g id="node12" class="node">
<title>com.example.rail.domain.model.calculation</title>
<polygon fill="#eedd82" stroke="black" points="1728,-617 1652,-617 1652,-579 1728,-579 1728,-617"/>
<text text-anchor="middle" x="1690" y="-601.8" font-family="Times,serif" font-size="14.00">運賃計算</text>
<text text-anchor="middle" x="1690" y="-586.8" font-family="Times,serif" font-size="14.00">calculation</text>
</g>
<!-- com.example.rail.domain.model.calculation&#45;&gt;com.example.rail.domain.model.faresystem.factor.date -->
<g id="edge7" class="edge">
<title>com.example.rail.domain.model.calculation&#45;&gt;com.example.rail.domain.model.faresystem.factor.date</title>
<path fill="none" stroke="black" d="M1728.04,-595.39C1767.08,-591.66 1826.93,-579.83 1862,-543 1891.14,-512.4 1886,-493.26 1886,-451 1886,-451 1886,-451 1886,-357 1886,-299.99 1905.5,-267.85 1862,-231 1847.29,-218.54 1533.14,-229.54 1515,-223 1493.03,-215.08 1472.44,-198.65 1457.52,-184.41"/>
<polygon fill="black" stroke="black" points="1459.83,-181.77 1450.26,-177.23 1454.91,-186.75 1459.83,-181.77"/>
</g>
<!-- com.example.rail.domain.model.calculation&#45;&gt;com.example.rail.domain.model.faresystem.rule.pax -->
<g id="edge58" class="edge">
<title>com.example.rail.domain.model.calculation&#45;&gt;com.example.rail.domain.model.faresystem.rule.pax</title>
<path fill="none" stroke="black" d="M1651.78,-581.47C1648.83,-580.55 1645.89,-579.71 1643,-579 1351.64,-507.46 501.51,-647.06 302,-423 274.81,-392.46 280.91,-366.03 302,-331 315.75,-308.17 339.43,-292.2 363.22,-281.21"/>
<polygon fill="black" stroke="black" points="364.91,-284.29 372.68,-277.09 362.11,-277.87 364.91,-284.29"/>
</g>
<!-- com.example.rail.domain.model.calculation&#45;&gt;com.example.rail.domain.model.faresystem.factor.passenger -->
<g id="edge12" class="edge">
<title>com.example.rail.domain.model.calculation&#45;&gt;com.example.rail.domain.model.faresystem.factor.passenger</title>
<path fill="none" stroke="black" d="M1728.19,-591.87C1781.93,-583.9 1876,-566.91 1900,-543 1929.93,-513.17 1924,-493.26 1924,-451 1924,-451 1924,-451 1924,-357 1924,-299.99 1943.21,-268.18 1900,-231 1882.47,-215.92 1713.87,-230.52 1692,-223 1668.33,-214.87 1645.5,-198.21 1628.89,-183.92"/>
<polygon fill="black" stroke="black" points="1631.06,-181.17 1621.25,-177.15 1626.41,-186.4 1631.06,-181.17"/>
</g>
<!-- com.example.rail.domain.model.calculation&#45;&gt;com.example.rail.domain.model.calculation.fare -->
<g id="edge18" class="edge">
<title>com.example.rail.domain.model.calculation&#45;&gt;com.example.rail.domain.model.calculation.fare</title>
<path fill="none" stroke="black" d="M1651.84,-581.17C1648.88,-580.32 1645.91,-579.58 1643,-579 1490.04,-548.68 381.06,-609.47 240,-543 211.06,-529.36 188.4,-499.75 174.7,-477.78"/>
<polygon fill="black" stroke="black" points="177.69,-475.98 169.55,-469.2 171.69,-479.58 177.69,-475.98"/>
</g>
<!-- com.example.rail.domain.model.calculation&#45;&gt;com.example.rail.domain.model.faresystem.factor.route -->
<g id="edge14" class="edge">
<title>com.example.rail.domain.model.calculation&#45;&gt;com.example.rail.domain.model.faresystem.factor.route</title>
<path fill="none" stroke="black" d="M1728.25,-581.66C1775.01,-560.08 1848,-515.99 1848,-451 1848,-451 1848,-451 1848,-357 1848,-192.09 1660.6,-263.89 1499,-231 1467.38,-224.56 1384.18,-234.43 1354,-223 1332.16,-214.73 1311.57,-198.3 1296.62,-184.16"/>
<polygon fill="black" stroke="black" points="1298.93,-181.52 1289.33,-177.03 1294.03,-186.53 1298.93,-181.52"/>
</g>
<!-- com.example.rail.domain.model.calculation.calculator -->
<g id="node15" class="node">
<title>com.example.rail.domain.model.calculation.calculator</title>
<polygon fill="#eedd82" stroke="black" points="1304.5,-469 1131.5,-469 1131.5,-431 1304.5,-431 1304.5,-469"/>
<text text-anchor="middle" x="1218" y="-453.8" font-family="Times,serif" font-size="14.00">【運賃計算】運賃計算機</text>
<text text-anchor="middle" x="1218" y="-438.8" font-family="Times,serif" font-size="14.00">calculation.calculator</text>
</g>
<!-- com.example.rail.domain.model.calculation&#45;&gt;com.example.rail.domain.model.calculation.calculator -->
<g id="edge38" class="edge">
<title>com.example.rail.domain.model.calculation&#45;&gt;com.example.rail.domain.model.calculation.calculator</title>
<path fill="none" stroke="black" d="M1651.87,-582.13C1648.88,-581.04 1645.89,-579.99 1643,-579 1521.65,-537.55 1378.48,-495.9 1293.13,-471.83"/>
<polygon fill="black" stroke="black" points="1293.85,-468.39 1283.27,-469.05 1291.95,-475.13 1293.85,-468.39"/>
</g>
<!-- com.example.rail.domain.model.calculation.payment -->
<g id="node19" class="node">
<title>com.example.rail.domain.model.calculation.payment</title>
<polygon fill="#eedd82" stroke="black" points="145.5,-543 14.5,-543 14.5,-505 145.5,-505 145.5,-543"/>
<text text-anchor="middle" x="80" y="-527.8" font-family="Times,serif" font-size="14.00">【運賃計算】支払</text>
<text text-anchor="middle" x="80" y="-512.8" font-family="Times,serif" font-size="14.00">calculation.payment</text>
</g>
<!-- com.example.rail.domain.model.calculation&#45;&gt;com.example.rail.domain.model.calculation.payment -->
<g id="edge35" class="edge">
<title>com.example.rail.domain.model.calculation&#45;&gt;com.example.rail.domain.model.calculation.payment</title>
<path fill="none" stroke="black" d="M1651.84,-581.17C1648.88,-580.32 1645.91,-579.58 1643,-579 1325.71,-516.25 509.98,-573.66 188,-543 177.6,-542.01 166.69,-540.62 155.97,-539.04"/>
<polygon fill="black" stroke="black" points="156.19,-535.53 145.77,-537.47 155.13,-542.45 156.19,-535.53"/>
</g>
<!-- com.example.rail.domain.model.calculation&#45;&gt;com.example.rail.domain.model.faresystem.factor.equipment -->
<g id="edge34" class="edge">
<title>com.example.rail.domain.model.calculation&#45;&gt;com.example.rail.domain.model.faresystem.factor.equipment</title>
<path fill="none" stroke="black" d="M1728.36,-593.51C1790.28,-587.11 1908.36,-571.46 1938,-543 1968.48,-513.74 1962,-493.26 1962,-451 1962,-451 1962,-451 1962,-357 1962,-299.99 1973.62,-275.51 1938,-231 1916.83,-204.55 1884.04,-187.61 1853.17,-176.86"/>
<polygon fill="black" stroke="black" points="1854.27,-173.53 1843.67,-173.71 1852.07,-180.18 1854.27,-173.53"/>
</g>
<!-- com.example.rail.domain.model.faresystem.factor.route&#45;&gt;com.example.rail.domain.model.faresystem._foundation.monetary -->
<g id="edge8" class="edge">
<title>com.example.rail.domain.model.faresystem.factor.route&#45;&gt;com.example.rail.domain.model.faresystem._foundation.monetary</title>
<path fill="none" stroke="black" d="M1201.46,-148.62C1154.23,-143.23 1090.97,-136.27 1035,-131 1012.58,-128.89 953.67,-133.96 934,-123 919.13,-114.72 907.67,-99.53 899.79,-86.03"/>
<polygon fill="black" stroke="black" points="902.76,-84.17 894.9,-77.06 896.61,-87.51 902.76,-84.17"/>
</g>
<!-- com.example.rail.domain.model.faresystem.factor.route&#45;&gt;com.example.rail.domain.model.faresystem._foundation.distance -->
<g id="edge37" class="edge">
<title>com.example.rail.domain.model.faresystem.factor.route&#45;&gt;com.example.rail.domain.model.faresystem._foundation.distance</title>
<path fill="none" stroke="black" d="M1201.5,-150.8C1130.06,-144.1 1028.63,-133.04 1013,-123 999.61,-114.39 989.92,-99.54 983.43,-86.31"/>
<polygon fill="black" stroke="black" points="986.57,-84.75 979.27,-77.07 980.19,-87.63 986.57,-84.75"/>
</g>
<!-- com.example.rail.domain.model.calculation.calculator&#45;&gt;com.example.rail.domain.model.faresystem.rule.express -->
<g id="edge54" class="edge">
<title>com.example.rail.domain.model.calculation.calculator&#45;&gt;com.example.rail.domain.model.faresystem.rule.express</title>
<path fill="none" stroke="black" d="M1131.24,-447.71C988.91,-445.17 717.4,-438.36 676,-423 653.94,-414.81 633.1,-398.38 617.94,-384.22"/>
<polygon fill="black" stroke="black" points="620.18,-381.52 610.56,-377.08 615.31,-386.55 620.18,-381.52"/>
</g>
<!-- com.example.rail.domain.model.calculation.calculator&#45;&gt;com.example.rail.domain.model.faresystem.factor.date -->
<g id="edge29" class="edge">
<title>com.example.rail.domain.model.calculation.calculator&#45;&gt;com.example.rail.domain.model.faresystem.factor.date</title>
<path fill="none" stroke="black" d="M1304.72,-443.96C1349.11,-440.15 1397.77,-433.68 1417,-423 1467.25,-395.09 1479.65,-377.12 1499,-323 1512.77,-284.5 1513.68,-269.16 1499,-231 1492.08,-213 1478.34,-196.69 1465.27,-184.17"/>
<polygon fill="black" stroke="black" points="1467.45,-181.42 1457.71,-177.25 1462.72,-186.58 1467.45,-181.42"/>
</g>
<!-- com.example.rail.domain.model.calculation.calculator&#45;&gt;com.example.rail.domain.model.faresystem.rule.pax -->
<g id="edge9" class="edge">
<title>com.example.rail.domain.model.calculation.calculator&#45;&gt;com.example.rail.domain.model.faresystem.rule.pax</title>
<path fill="none" stroke="black" d="M1131.41,-448.06C909.71,-445.46 337.95,-437.36 324,-423 295.51,-393.67 304.26,-366.81 324,-331 336.01,-309.21 357.71,-293.1 378.97,-281.71"/>
<polygon fill="black" stroke="black" points="380.7,-284.76 388.03,-277.11 377.53,-278.52 380.7,-284.76"/>
</g>
<!-- com.example.rail.domain.model.calculation.calculator&#45;&gt;com.example.rail.domain.model.faresystem.factor.passenger -->
<g id="edge43" class="edge">
<title>com.example.rail.domain.model.calculation.calculator&#45;&gt;com.example.rail.domain.model.faresystem.factor.passenger</title>
<path fill="none" stroke="black" d="M1304.56,-448.77C1366.65,-447.01 1443.79,-441.06 1470,-423 1552.37,-366.23 1586.42,-242.84 1597.97,-187.21"/>
<polygon fill="black" stroke="black" points="1601.41,-187.82 1599.93,-177.33 1594.55,-186.46 1601.41,-187.82"/>
</g>
<!-- com.example.rail.domain.model.calculation.calculator&#45;&gt;com.example.rail.domain.model.faresystem.rule.group -->
<g id="edge15" class="edge">
<title>com.example.rail.domain.model.calculation.calculator&#45;&gt;com.example.rail.domain.model.faresystem.rule.group</title>
<path fill="none" stroke="black" d="M1131.28,-448.78C955.62,-447.91 569.6,-443.65 513,-423 490.9,-414.94 470.05,-398.5 454.91,-384.31"/>
<polygon fill="black" stroke="black" points="457.15,-381.6 447.54,-377.15 452.27,-386.62 457.15,-381.6"/>
</g>
<!-- com.example.rail.domain.model.calculation.calculator&#45;&gt;com.example.rail.domain.model.faresystem.rule.basis -->
<g id="edge36" class="edge">
<title>com.example.rail.domain.model.calculation.calculator&#45;&gt;com.example.rail.domain.model.faresystem.rule.basis</title>
<path fill="none" stroke="black" d="M1131.48,-449.62C916.98,-450.73 375.94,-450.75 349,-423 320.52,-393.66 320.74,-360.55 349,-331 362.68,-316.69 507.63,-327.08 527,-323 568.87,-314.19 614.01,-296.02 646.47,-281.29"/>
<polygon fill="black" stroke="black" points="648.08,-284.4 655.7,-277.04 645.16,-278.05 648.08,-284.4"/>
</g>
<!-- com.example.rail.domain.model.calculation.calculator&#45;&gt;com.example.rail.domain.model.faresystem.factor.route -->
<g id="edge41" class="edge">
<title>com.example.rail.domain.model.calculation.calculator&#45;&gt;com.example.rail.domain.model.faresystem.factor.route</title>
<path fill="none" stroke="black" d="M1304.56,-431.74C1364.02,-414.9 1438.7,-382.72 1476,-323 1497.66,-288.32 1503.95,-260.84 1476,-231 1466.71,-221.08 1366.68,-227.88 1354,-223 1332.35,-214.67 1311.88,-198.41 1296.94,-184.36"/>
<polygon fill="black" stroke="black" points="1299.26,-181.73 1289.65,-177.26 1294.38,-186.75 1299.26,-181.73"/>
</g>
<!-- com.example.rail.domain.model.calculation.calculator&#45;&gt;com.example.rail.domain.model.faresystem._foundation.monetary -->
<g id="edge46" class="edge">
<title>com.example.rail.domain.model.calculation.calculator&#45;&gt;com.example.rail.domain.model.faresystem._foundation.monetary</title>
<path fill="none" stroke="black" d="M1304.51,-449.63C1404.73,-449.28 1563.11,-445.04 1618,-423 1773.36,-360.61 1973.87,-249.9 1856,-131 1837.97,-112.81 956.8,-134.67 934,-123 918.74,-115.19 907.22,-99.88 899.41,-86.18"/>
<polygon fill="black" stroke="black" points="902.36,-84.28 894.58,-77.08 896.17,-87.55 902.36,-84.28"/>
</g>
<!-- com.example.rail.domain.model.faresystem.rule.seasonality -->
<g id="node16" class="node">
<title>com.example.rail.domain.model.faresystem.rule.seasonality</title>
<polygon fill="#eedd82" stroke="black" points="873,-377 685,-377 685,-339 873,-339 873,-377"/>
<text text-anchor="middle" x="779" y="-361.8" font-family="Times,serif" font-size="14.00">【ルール】季節性変動料金</text>
<text text-anchor="middle" x="779" y="-346.8" font-family="Times,serif" font-size="14.00">seasonality</text>
</g>
<!-- com.example.rail.domain.model.calculation.calculator&#45;&gt;com.example.rail.domain.model.faresystem.rule.seasonality -->
<g id="edge13" class="edge">
<title>com.example.rail.domain.model.calculation.calculator&#45;&gt;com.example.rail.domain.model.faresystem.rule.seasonality</title>
<path fill="none" stroke="black" d="M1131.27,-431.22C1058.09,-416.22 953.38,-394.75 877.15,-379.12"/>
<polygon fill="black" stroke="black" points="877.55,-375.63 867.05,-377.05 876.15,-382.49 877.55,-375.63"/>
</g>
<!-- com.example.rail.domain.model.calculation.calculator&#45;&gt;com.example.rail.domain.model.calculation.fare.details -->
<g id="edge59" class="edge">
<title>com.example.rail.domain.model.calculation.calculator&#45;&gt;com.example.rail.domain.model.calculation.fare.details</title>
<path fill="none" stroke="black" d="M1131.12,-448.24C914.16,-446.1 360.15,-439.13 278,-423 234.77,-414.51 188.09,-396.23 154.61,-381.37"/>
<polygon fill="black" stroke="black" points="155.65,-378 145.09,-377.08 152.77,-384.38 155.65,-378"/>
</g>
<!-- com.example.rail.domain.model.calculation.calculator&#45;&gt;com.example.rail.domain.model.faresystem.factor.equipment -->
<g id="edge45" class="edge">
<title>com.example.rail.domain.model.calculation.calculator&#45;&gt;com.example.rail.domain.model.faresystem.factor.equipment</title>
<path fill="none" stroke="black" d="M1304.7,-445.79C1379.99,-442.23 1482.9,-435.3 1522,-423 1606.72,-396.36 1634.93,-388.41 1695,-323 1731.89,-282.83 1754.13,-221.84 1764.64,-186.67"/>
<polygon fill="black" stroke="black" points="1768.01,-187.62 1767.42,-177.05 1761.28,-185.69 1768.01,-187.62"/>
</g>
<!-- com.example.rail.domain.model.faresystem.rule.seasonality&#45;&gt;com.example.rail.domain.model.faresystem.factor.date -->
<g id="edge49" class="edge">
<title>com.example.rail.domain.model.faresystem.rule.seasonality&#45;&gt;com.example.rail.domain.model.faresystem.factor.date</title>
<path fill="none" stroke="black" d="M873.22,-356.1C1067.84,-353.76 1498.01,-346.02 1520,-323 1548.24,-293.43 1537.3,-268.05 1520,-231 1514.33,-218.85 1489.87,-198.94 1468.48,-183.13"/>
<polygon fill="black" stroke="black" points="1470.32,-180.14 1460.17,-177.08 1466.2,-185.79 1470.32,-180.14"/>
</g>
<!-- com.example.rail.domain.model.faresystem.rule.seasonality&#45;&gt;com.example.rail.domain.model.faresystem.pricing.seasonality -->
<g id="edge53" class="edge">
<title>com.example.rail.domain.model.faresystem.rule.seasonality&#45;&gt;com.example.rail.domain.model.faresystem.pricing.seasonality</title>
<path fill="none" stroke="black" d="M873.24,-354.83C985.21,-351.39 1164.93,-342.9 1229,-323 1257.19,-314.24 1285.91,-297.2 1306.94,-282.9"/>
<polygon fill="black" stroke="black" points="1308.96,-285.76 1315.17,-277.17 1304.96,-280.01 1308.96,-285.76"/>
</g>
<!-- com.example.rail.domain.model.faresystem.rule.seasonality&#45;&gt;com.example.rail.domain.model.faresystem._foundation.monetary -->
<g id="edge24" class="edge">
<title>com.example.rail.domain.model.faresystem.rule.seasonality&#45;&gt;com.example.rail.domain.model.faresystem._foundation.monetary</title>
<path fill="none" stroke="black" d="M827.52,-338.96C834.23,-334.63 840.39,-329.37 845,-323 897.07,-251.04 894.76,-139.12 890.28,-87.21"/>
<polygon fill="black" stroke="black" points="893.74,-86.7 889.3,-77.08 886.77,-87.37 893.74,-86.7"/>
</g>
<!-- com.example.rail.domain.model.faresystem.rule.seasonality&#45;&gt;com.example.rail.domain.model.faresystem.factor.equipment -->
<g id="edge55" class="edge">
<title>com.example.rail.domain.model.faresystem.rule.seasonality&#45;&gt;com.example.rail.domain.model.faresystem.factor.equipment</title>
<path fill="none" stroke="black" d="M873.09,-357.52C1081.15,-358.06 1567.17,-355.74 1634,-323 1694.07,-293.57 1737.83,-224.61 1758.56,-186.14"/>
<polygon fill="black" stroke="black" points="1761.77,-187.54 1763.33,-177.06 1755.58,-184.28 1761.77,-187.54"/>
</g>
<!-- com.example.rail.domain.model.calculation.fare.details&#45;&gt;com.example.rail.domain.model.faresystem.rule.pax -->
<g id="edge20" class="edge">
<title>com.example.rail.domain.model.calculation.fare.details&#45;&gt;com.example.rail.domain.model.faresystem.rule.pax</title>
<path fill="none" stroke="black" d="M166.53,-339C178.19,-335.93 190.41,-333.07 202,-331 244.15,-323.48 256.58,-333.84 298,-323 333.31,-313.76 370.78,-296.17 398.07,-281.76"/>
<polygon fill="black" stroke="black" points="399.76,-284.83 406.91,-277.01 396.45,-278.66 399.76,-284.83"/>
</g>
<!-- com.example.rail.domain.model.calculation.fare.details&#45;&gt;com.example.rail.domain.model.faresystem.factor.route -->
<g id="edge30" class="edge">
<title>com.example.rail.domain.model.calculation.fare.details&#45;&gt;com.example.rail.domain.model.faresystem.factor.route</title>
<path fill="none" stroke="black" d="M140.68,-338.75C200.71,-305.35 324.39,-237.27 346,-231 503.55,-185.32 995.21,-166.79 1191.18,-161.09"/>
<polygon fill="black" stroke="black" points="1191.51,-164.59 1201.41,-160.8 1191.31,-157.59 1191.51,-164.59"/>
</g>
<!-- com.example.rail.domain.model.calculation.fare.details&#45;&gt;com.example.rail.domain.model.faresystem._foundation.monetary -->
<g id="edge42" class="edge">
<title>com.example.rail.domain.model.calculation.fare.details&#45;&gt;com.example.rail.domain.model.faresystem._foundation.monetary</title>
<path fill="none" stroke="black" d="M111.74,-338.69C118.3,-311.25 134.49,-259.66 168,-231 271.38,-142.61 696.41,-82.68 839.64,-64.67"/>
<polygon fill="black" stroke="black" points="840.36,-68.11 849.85,-63.4 839.49,-61.17 840.36,-68.11"/>
</g>
<!-- com.example.rail.domain.model.calculation.payment&#45;&gt;com.example.rail.domain.model.calculation.fare -->
<g id="edge39" class="edge">
<title>com.example.rail.domain.model.calculation.payment&#45;&gt;com.example.rail.domain.model.calculation.fare</title>
<path fill="none" stroke="black" d="M100.19,-504.83C109.85,-496.13 121.58,-485.58 132.08,-476.13"/>
<polygon fill="black" stroke="black" points="134.73,-478.45 139.82,-469.16 130.04,-473.25 134.73,-478.45"/>
</g>
<!-- com.example.rail.domain.model.calculation.payment&#45;&gt;com.example.rail.domain.model.faresystem._foundation.monetary -->
<g id="edge56" class="edge">
<title>com.example.rail.domain.model.calculation.payment&#45;&gt;com.example.rail.domain.model.faresystem._foundation.monetary</title>
<path fill="none" stroke="black" d="M64.19,-504.74C40.88,-475.87 0,-416.97 0,-359 0,-359 0,-359 0,-257 0,-83.36 655.68,-61.94 839.57,-59.34"/>
<polygon fill="black" stroke="black" points="839.78,-62.84 849.74,-59.21 839.69,-55.84 839.78,-62.84"/>
</g>
<!-- com.example.rail.domain.model.calculation.payment&#45;&gt;com.example.rail.domain.model.calculation.fare.details -->
<g id="edge23" class="edge">
<title>com.example.rail.domain.model.calculation.payment&#45;&gt;com.example.rail.domain.model.calculation.fare.details</title>
<path fill="none" stroke="black" d="M79.63,-504.86C79.57,-486.19 80.35,-456.33 85,-431 87.76,-415.98 92.76,-399.75 97.4,-386.5"/>
<polygon fill="black" stroke="black" points="100.72,-387.61 100.83,-377.02 94.13,-385.23 100.72,-387.61"/>
</g>
<!-- com.example.rail.domain.model.faresystem.pricing.byRoute&#45;&gt;com.example.rail.domain.model.faresystem.factor.route -->
<g id="edge25" class="edge">
<title>com.example.rail.domain.model.faresystem.pricing.byRoute&#45;&gt;com.example.rail.domain.model.faresystem.factor.route</title>
<path fill="none" stroke="black" d="M1159,-238.8C1181.5,-223.05 1214.19,-200.17 1238.8,-182.94"/>
<polygon fill="black" stroke="black" points="1240.95,-185.71 1247.13,-177.11 1236.93,-179.97 1240.95,-185.71"/>
</g>
<!-- com.example.rail.domain.model.faresystem.pricing.byRoute&#45;&gt;com.example.rail.domain.model.faresystem._foundation.monetary -->
<g id="edge51" class="edge">
<title>com.example.rail.domain.model.faresystem.pricing.byRoute&#45;&gt;com.example.rail.domain.model.faresystem._foundation.monetary</title>
<path fill="none" stroke="black" d="M1067.62,-238.97C1057.7,-236.28 1047.58,-233.55 1038,-231 1024.25,-227.34 1018.59,-231.26 1007,-223 967.04,-194.54 980.65,-165.73 946,-131 941.47,-126.46 938.63,-127.43 934,-123 922.45,-111.96 911.73,-97.81 903.45,-85.61"/>
<polygon fill="black" stroke="black" points="906.3,-83.58 897.88,-77.16 900.46,-87.43 906.3,-83.58"/>
</g>
</g>
</svg>
