<?xml version="1.0" encoding="UTF-8" standalone="no"?>
<!DOCTYPE svg PUBLIC "-//W3C//DTD SVG 1.1//EN"
 "http://www.w3.org/Graphics/SVG/1.1/DTD/svg11.dtd">
<!-- Generated by graphviz version 2.46.1 (20210213.1702)
 -->
<!-- Title: パッケージ関連図 Pages: 1 -->
<svg width="230pt" height="143pt"
 viewBox="0.00 0.00 229.50 143.00" xmlns="http://www.w3.org/2000/svg" xmlns:xlink="http://www.w3.org/1999/xlink">
<g id="graph0" class="graph" transform="scale(1 1) rotate(0) translate(4 139)">
<title>パッケージ関連図</title>
<polygon fill="white" stroke="transparent" points="-4,4 -4,-139 225.5,-139 225.5,4 -4,4"/>
<text text-anchor="middle" x="110.75" y="-7.8" font-family="Times,serif" font-size="14.00">パッケージ関連図</text>
<!-- summary -->
<g id="node1" class="node">
<title>summary</title>
<polygon fill="none" stroke="black" points="110,-135 0,-135 0,-97 116,-97 116,-129 110,-135"/>
<polyline fill="none" stroke="black" points="110,-135 110,-129 "/>
<polyline fill="none" stroke="black" points="116,-129 110,-129 "/>
<text text-anchor="start" x="8" y="-119.8" font-family="Times,serif" font-size="14.00">パッケージ数: 2</text>
<text text-anchor="start" x="8" y="-104.8" font-family="Times,serif" font-size="14.00">関連数: 1</text>
</g>
<!-- com.example.rail.domain.model.calculation -->
<g id="node2" class="node">
<title>com.example.rail.domain.model.calculation</title>
<polygon fill="#eedd82" stroke="black" points="210,-135 134,-135 134,-97 210,-97 210,-135"/>
<text text-anchor="middle" x="172" y="-119.8" font-family="Times,serif" font-size="14.00">運賃計算</text>
<text text-anchor="middle" x="172" y="-104.8" font-family="Times,serif" font-size="14.00">calculation</text>
</g>
<!-- com.example.rail.domain.model.faresystem -->
<g id="node3" class="node">
<title>com.example.rail.domain.model.faresystem</title>
<polygon fill="#eedd82" stroke="black" points="221.5,-61 122.5,-61 122.5,-23 221.5,-23 221.5,-61"/>
<text text-anchor="middle" x="172" y="-45.8" font-family="Times,serif" font-size="14.00">運賃システム</text>
<text text-anchor="middle" x="172" y="-30.8" font-family="Times,serif" font-size="14.00">faresystem</text>
</g>
<!-- com.example.rail.domain.model.calculation&#45;&gt;com.example.rail.domain.model.faresystem -->
<g id="edge1" class="edge">
<title>com.example.rail.domain.model.calculation&#45;&gt;com.example.rail.domain.model.faresystem</title>
<path fill="none" stroke="black" d="M172,-96.83C172,-89.13 172,-79.97 172,-71.42"/>
<polygon fill="black" stroke="black" points="175.5,-71.41 172,-61.41 168.5,-71.41 175.5,-71.41"/>
</g>
</g>
</svg>
