<?xml version="1.0" encoding="UTF-8" standalone="no"?>
<!DOCTYPE svg PUBLIC "-//W3C//DTD SVG 1.1//EN"
 "http://www.w3.org/Graphics/SVG/1.1/DTD/svg11.dtd">
<!-- Generated by graphviz version 2.46.1 (20210213.1702)
 -->
<!-- Title: パッケージ関連図 Pages: 1 -->
<svg width="410pt" height="573pt"
 viewBox="0.00 0.00 410.01 573.00" xmlns="http://www.w3.org/2000/svg" xmlns:xlink="http://www.w3.org/1999/xlink">
<g id="graph0" class="graph" transform="scale(1 1) rotate(0) translate(4 569)">
<title>パッケージ関連図</title>
<polygon fill="white" stroke="transparent" points="-4,4 -4,-569 406.01,-569 406.01,4 -4,4"/>
<text text-anchor="middle" x="201" y="-7.8" font-family="Times,serif" font-size="14.00">パッケージ関連図</text>
<g id="clust1" class="cluster">
<title>cluster_com.example.rail.domain.model.faresystem</title>
<polygon fill="lemonchiffon" stroke="#eedd82" stroke-width="2" points="208.49,-31 208.49,-345 350.49,-345 350.49,-31 208.49,-31"/>
<text text-anchor="middle" x="279.49" y="-329.8" font-family="Times,serif" font-size="14.00">運賃システム</text>
<text text-anchor="middle" x="279.49" y="-314.8" font-family="Times,serif" font-size="14.00">faresystem</text>
</g>
<g id="clust2" class="cluster">
<title>cluster_com.example.rail.domain.model.calculation</title>
<polygon fill="lemonchiffon" stroke="#eedd82" stroke-width="2" points="29.49,-353 29.49,-519 368.49,-519 368.49,-353 29.49,-353"/>
<text text-anchor="middle" x="198.99" y="-503.8" font-family="Times,serif" font-size="14.00">運賃計算</text>
<text text-anchor="middle" x="198.99" y="-488.8" font-family="Times,serif" font-size="14.00">calculation</text>
</g>
<!-- summary -->
<g id="node1" class="node">
<title>summary</title>
<polygon fill="none" stroke="black" points="232.49,-565 122.49,-565 122.49,-527 238.49,-527 238.49,-559 232.49,-565"/>
<polyline fill="none" stroke="black" points="232.49,-565 232.49,-559 "/>
<polyline fill="none" stroke="black" points="238.49,-559 232.49,-559 "/>
<text text-anchor="start" x="130.49" y="-549.8" font-family="Times,serif" font-size="14.00">パッケージ数: 8</text>
<text text-anchor="start" x="130.49" y="-534.8" font-family="Times,serif" font-size="14.00">関連数: 20</text>
</g>
<!-- com.example.rail.domain.model.faresystem.rule -->
<g id="node2" class="node">
<title>com.example.rail.domain.model.faresystem.rule</title>
<polygon fill="#eedd82" stroke="black" points="318.99,-299 259.99,-299 259.99,-261 318.99,-261 318.99,-299"/>
<text text-anchor="middle" x="289.49" y="-283.8" font-family="Times,serif" font-size="14.00">ルール</text>
<text text-anchor="middle" x="289.49" y="-268.8" font-family="Times,serif" font-size="14.00">rule</text>
</g>
<!-- com.example.rail.domain.model.faresystem.pricing -->
<g id="node3" class="node">
<title>com.example.rail.domain.model.faresystem.pricing</title>
<polygon fill="#eedd82" stroke="black" points="322.49,-225 248.49,-225 248.49,-187 322.49,-187 322.49,-225"/>
<text text-anchor="middle" x="285.49" y="-209.8" font-family="Times,serif" font-size="14.00">価格設定</text>
<text text-anchor="middle" x="285.49" y="-194.8" font-family="Times,serif" font-size="14.00">pricing</text>
</g>
<!-- com.example.rail.domain.model.faresystem.rule&#45;&gt;com.example.rail.domain.model.faresystem.pricing -->
<g id="edge1" class="edge">
<title>com.example.rail.domain.model.faresystem.rule&#45;&gt;com.example.rail.domain.model.faresystem.pricing</title>
<path fill="none" stroke="black" d="M288.48,-260.83C288.05,-253.13 287.54,-243.97 287.07,-235.42"/>
<polygon fill="black" stroke="black" points="290.56,-235.2 286.51,-225.41 283.57,-235.59 290.56,-235.2"/>
</g>
<!-- com.example.rail.domain.model.faresystem.factor -->
<g id="node6" class="node">
<title>com.example.rail.domain.model.faresystem.factor</title>
<polygon fill="#eedd82" stroke="black" points="302.49,-151 216.49,-151 216.49,-113 302.49,-113 302.49,-151"/>
<text text-anchor="middle" x="259.49" y="-135.8" font-family="Times,serif" font-size="14.00">ファクター</text>
<text text-anchor="middle" x="259.49" y="-120.8" font-family="Times,serif" font-size="14.00">factor</text>
</g>
<!-- com.example.rail.domain.model.faresystem.rule&#45;&gt;com.example.rail.domain.model.faresystem.factor -->
<g id="edge15" class="edge">
<title>com.example.rail.domain.model.faresystem.rule&#45;&gt;com.example.rail.domain.model.faresystem.factor</title>
<path fill="none" stroke="black" d="M266.1,-260.84C255.86,-251.39 244.94,-238.92 239.49,-225 231.3,-204.1 237.65,-179.15 245.3,-160.51"/>
<polygon fill="black" stroke="black" points="248.61,-161.69 249.47,-151.13 242.21,-158.84 248.61,-161.69"/>
</g>
<!-- com.example.rail.domain.model.faresystem._foundation -->
<g id="node7" class="node">
<title>com.example.rail.domain.model.faresystem._foundation</title>
<polygon fill="#eedd82" stroke="black" points="321.49,-77 239.49,-77 239.49,-39 321.49,-39 321.49,-77"/>
<text text-anchor="middle" x="280.49" y="-61.8" font-family="Times,serif" font-size="14.00">基礎型</text>
<text text-anchor="middle" x="280.49" y="-46.8" font-family="Times,serif" font-size="14.00">_foundation</text>
</g>
<!-- com.example.rail.domain.model.faresystem.rule&#45;&gt;com.example.rail.domain.model.faresystem._foundation -->
<g id="edge11" class="edge">
<title>com.example.rail.domain.model.faresystem.rule&#45;&gt;com.example.rail.domain.model.faresystem._foundation</title>
<path fill="none" stroke="black" d="M308.54,-260.89C317.35,-251.19 326.86,-238.48 331.49,-225 336.97,-209.03 333.07,-203.82 331.49,-187 328.37,-153.67 330.33,-143.91 317.49,-113 313.54,-103.5 307.76,-93.96 301.93,-85.6"/>
<polygon fill="black" stroke="black" points="304.64,-83.38 295.92,-77.37 298.99,-87.51 304.64,-83.38"/>
</g>
<!-- com.example.rail.domain.model.faresystem.pricing&#45;&gt;com.example.rail.domain.model.faresystem.factor -->
<g id="edge7" class="edge">
<title>com.example.rail.domain.model.faresystem.pricing&#45;&gt;com.example.rail.domain.model.faresystem.factor</title>
<path fill="none" stroke="black" d="M278.93,-186.83C276.09,-178.96 272.7,-169.57 269.55,-160.85"/>
<polygon fill="black" stroke="black" points="272.83,-159.63 266.14,-151.41 266.24,-162.01 272.83,-159.63"/>
</g>
<!-- com.example.rail.domain.model.faresystem.pricing&#45;&gt;com.example.rail.domain.model.faresystem._foundation -->
<g id="edge6" class="edge">
<title>com.example.rail.domain.model.faresystem.pricing&#45;&gt;com.example.rail.domain.model.faresystem._foundation</title>
<path fill="none" stroke="black" d="M296.81,-186.77C302.43,-176.64 308.62,-163.58 311.49,-151 315.25,-134.53 315.84,-129.32 311.49,-113 308.99,-103.64 304.45,-94.22 299.59,-85.92"/>
<polygon fill="black" stroke="black" points="302.55,-84.05 294.29,-77.42 296.61,-87.76 302.55,-84.05"/>
</g>
<!-- com.example.rail.domain.model.calculation.calculator -->
<g id="node4" class="node">
<title>com.example.rail.domain.model.calculation.calculator</title>
<polygon fill="#eedd82" stroke="black" points="210.99,-473 37.99,-473 37.99,-435 210.99,-435 210.99,-473"/>
<text text-anchor="middle" x="124.49" y="-457.8" font-family="Times,serif" font-size="14.00">【運賃計算】運賃計算機</text>
<text text-anchor="middle" x="124.49" y="-442.8" font-family="Times,serif" font-size="14.00">calculator</text>
</g>
<!-- com.example.rail.domain.model.calculation.calculator&#45;&gt;com.example.rail.domain.model.faresystem.rule -->
<g id="edge2" class="edge">
<title>com.example.rail.domain.model.calculation.calculator&#45;&gt;com.example.rail.domain.model.faresystem.rule</title>
<path fill="none" stroke="black" d="M141.84,-434.92C171.3,-404.21 231.19,-341.77 264.94,-306.59"/>
<polygon fill="black" stroke="black" points="267.73,-308.74 272.13,-299.1 262.68,-303.89 267.73,-308.74"/>
</g>
<!-- com.example.rail.domain.model.calculation.fare -->
<g id="node5" class="node">
<title>com.example.rail.domain.model.calculation.fare</title>
<polygon fill="#eedd82" stroke="black" points="359.99,-399 228.99,-399 228.99,-361 359.99,-361 359.99,-399"/>
<text text-anchor="middle" x="294.49" y="-383.8" font-family="Times,serif" font-size="14.00">【運賃計算】運賃</text>
<text text-anchor="middle" x="294.49" y="-368.8" font-family="Times,serif" font-size="14.00">fare</text>
</g>
<!-- com.example.rail.domain.model.calculation.calculator&#45;&gt;com.example.rail.domain.model.calculation.fare -->
<g id="edge20" class="edge">
<title>com.example.rail.domain.model.calculation.calculator&#45;&gt;com.example.rail.domain.model.calculation.fare</title>
<path fill="none" stroke="black" d="M167.39,-434.83C190.23,-425.16 218.49,-413.19 242.56,-402.99"/>
<polygon fill="black" stroke="black" points="244.06,-406.16 251.9,-399.04 241.33,-399.72 244.06,-406.16"/>
</g>
<!-- com.example.rail.domain.model.calculation.calculator&#45;&gt;com.example.rail.domain.model.faresystem.factor -->
<g id="edge19" class="edge">
<title>com.example.rail.domain.model.calculation.calculator&#45;&gt;com.example.rail.domain.model.faresystem.factor</title>
<path fill="none" stroke="black" d="M129.87,-434.69C143.11,-390.72 179.48,-276.19 224.49,-187 229.12,-177.82 234.95,-168.26 240.51,-159.78"/>
<polygon fill="black" stroke="black" points="243.47,-161.65 246.15,-151.4 237.66,-157.74 243.47,-161.65"/>
</g>
<!-- com.example.rail.domain.model.calculation.calculator&#45;&gt;com.example.rail.domain.model.faresystem._foundation -->
<g id="edge12" class="edge">
<title>com.example.rail.domain.model.calculation.calculator&#45;&gt;com.example.rail.domain.model.faresystem._foundation</title>
<path fill="none" stroke="black" d="M117.78,-434.96C106.87,-403.95 86.49,-338.34 86.49,-281 86.49,-281 86.49,-281 86.49,-205 86.49,-133.27 172.2,-92.4 229.68,-73.05"/>
<polygon fill="black" stroke="black" points="230.92,-76.32 239.35,-69.9 228.76,-69.66 230.92,-76.32"/>
</g>
<!-- com.example.rail.domain.model.calculation.fare&#45;&gt;com.example.rail.domain.model.faresystem.rule -->
<g id="edge3" class="edge">
<title>com.example.rail.domain.model.calculation.fare&#45;&gt;com.example.rail.domain.model.faresystem.rule</title>
<path fill="none" stroke="black" d="M293.55,-360.57C292.81,-346.1 291.77,-325.72 290.93,-309.21"/>
<polygon fill="black" stroke="black" points="294.41,-308.83 290.41,-299.02 287.42,-309.18 294.41,-308.83"/>
</g>
<!-- com.example.rail.domain.model.calculation.fare&#45;&gt;com.example.rail.domain.model.faresystem.factor -->
<g id="edge4" class="edge">
<title>com.example.rail.domain.model.calculation.fare&#45;&gt;com.example.rail.domain.model.faresystem.factor</title>
<path fill="none" stroke="black" d="M265.18,-360.7C259.9,-356.17 254.97,-350.9 251.49,-345 224,-298.44 235.95,-278.88 231.49,-225 230.1,-208.17 227.49,-203.41 231.49,-187 233.74,-177.76 237.88,-168.33 242.29,-160"/>
<polygon fill="black" stroke="black" points="245.44,-161.55 247.31,-151.12 239.34,-158.1 245.44,-161.55"/>
</g>
<!-- com.example.rail.domain.model.calculation.fare&#45;&gt;com.example.rail.domain.model.faresystem._foundation -->
<g id="edge8" class="edge">
<title>com.example.rail.domain.model.calculation.fare&#45;&gt;com.example.rail.domain.model.faresystem._foundation</title>
<path fill="none" stroke="black" d="M317.36,-360.76C321.77,-356.11 325.84,-350.77 328.49,-345 357.82,-281.07 342.21,-257.18 337.49,-187 335.26,-153.89 341.18,-143.23 327.49,-113 322.78,-102.6 315.4,-92.71 307.87,-84.3"/>
<polygon fill="black" stroke="black" points="310.4,-81.88 300.98,-77.02 305.31,-86.69 310.4,-81.88"/>
</g>
<!-- com.example.rail.domain.model.faresystem.factor&#45;&gt;com.example.rail.domain.model.faresystem._foundation -->
<g id="edge5" class="edge">
<title>com.example.rail.domain.model.faresystem.factor&#45;&gt;com.example.rail.domain.model.faresystem._foundation</title>
<path fill="none" stroke="black" d="M264.79,-112.83C267.06,-105.05 269.76,-95.77 272.28,-87.13"/>
<polygon fill="black" stroke="black" points="275.68,-87.99 275.12,-77.41 268.96,-86.03 275.68,-87.99"/>
</g>
<!-- com.example.rail.domain.model.calculation -->
<g id="node8" class="node">
<title>com.example.rail.domain.model.calculation</title>
<polygon fill="#eedd82" stroke="black" points="332.49,-565 256.49,-565 256.49,-527 332.49,-527 332.49,-565"/>
<text text-anchor="middle" x="294.49" y="-549.8" font-family="Times,serif" font-size="14.00">運賃計算</text>
<text text-anchor="middle" x="294.49" y="-534.8" font-family="Times,serif" font-size="14.00">calculation</text>
</g>
<!-- com.example.rail.domain.model.calculation&#45;&gt;com.example.rail.domain.model.faresystem.rule -->
<g id="edge9" class="edge">
<title>com.example.rail.domain.model.calculation&#45;&gt;com.example.rail.domain.model.faresystem.rule</title>
<path fill="none" stroke="black" d="M332.52,-539.5C356.12,-535.23 383.28,-528.43 390.49,-519 413.18,-489.35 394.52,-472.12 390.49,-435 386.47,-397.91 391.55,-385.08 372.49,-353 361.29,-334.15 343.41,-317.71 327.11,-305.32"/>
<polygon fill="black" stroke="black" points="328.91,-302.3 318.77,-299.21 324.77,-307.94 328.91,-302.3"/>
</g>
<!-- com.example.rail.domain.model.calculation&#45;&gt;com.example.rail.domain.model.calculation.calculator -->
<g id="edge14" class="edge">
<title>com.example.rail.domain.model.calculation&#45;&gt;com.example.rail.domain.model.calculation.calculator</title>
<path fill="none" stroke="black" d="M256.36,-530.11C253.37,-529.03 250.39,-527.98 247.49,-527 235.64,-522.98 231.82,-524.31 220.49,-519 197.57,-508.27 173.9,-492.54 155.79,-479.37"/>
<polygon fill="black" stroke="black" points="157.5,-476.27 147.38,-473.13 153.33,-481.9 157.5,-476.27"/>
</g>
<!-- com.example.rail.domain.model.calculation&#45;&gt;com.example.rail.domain.model.calculation.fare -->
<g id="edge17" class="edge">
<title>com.example.rail.domain.model.calculation&#45;&gt;com.example.rail.domain.model.calculation.fare</title>
<path fill="none" stroke="black" d="M332.84,-540.94C346.71,-537.4 361.02,-530.9 369.49,-519 391.14,-488.58 386.51,-468.23 369.49,-435 363.25,-422.82 352.85,-412.77 341.75,-404.77"/>
<polygon fill="black" stroke="black" points="343.44,-401.69 333.18,-399.06 339.56,-407.52 343.44,-401.69"/>
</g>
<!-- com.example.rail.domain.model.calculation&#45;&gt;com.example.rail.domain.model.faresystem.factor -->
<g id="edge18" class="edge">
<title>com.example.rail.domain.model.calculation&#45;&gt;com.example.rail.domain.model.faresystem.factor</title>
<path fill="none" stroke="black" d="M256.32,-529.21C253.37,-528.35 250.4,-527.59 247.49,-527 235.4,-524.54 34.56,-527.37 25.49,-519 -19.87,-477.11 9.49,-442.74 9.49,-381 9.49,-381 9.49,-381 9.49,-279 9.49,-188.63 132.8,-153.18 206.22,-140.09"/>
<polygon fill="black" stroke="black" points="206.96,-143.51 216.23,-138.38 205.78,-136.61 206.96,-143.51"/>
</g>
<!-- com.example.rail.domain.model.calculation.payment -->
<g id="node9" class="node">
<title>com.example.rail.domain.model.calculation.payment</title>
<polygon fill="#eedd82" stroke="black" points="359.99,-473 228.99,-473 228.99,-435 359.99,-435 359.99,-473"/>
<text text-anchor="middle" x="294.49" y="-457.8" font-family="Times,serif" font-size="14.00">【運賃計算】支払</text>
<text text-anchor="middle" x="294.49" y="-442.8" font-family="Times,serif" font-size="14.00">payment</text>
</g>
<!-- com.example.rail.domain.model.calculation&#45;&gt;com.example.rail.domain.model.calculation.payment -->
<g id="edge13" class="edge">
<title>com.example.rail.domain.model.calculation&#45;&gt;com.example.rail.domain.model.calculation.payment</title>
<path fill="none" stroke="black" d="M294.49,-526.79C294.49,-514.34 294.49,-497.61 294.49,-483.42"/>
<polygon fill="black" stroke="black" points="297.99,-483.19 294.49,-473.19 290.99,-483.19 297.99,-483.19"/>
</g>
<!-- com.example.rail.domain.model.calculation.payment&#45;&gt;com.example.rail.domain.model.calculation.fare -->
<g id="edge16" class="edge">
<title>com.example.rail.domain.model.calculation.payment&#45;&gt;com.example.rail.domain.model.calculation.fare</title>
<path fill="none" stroke="black" d="M294.49,-434.83C294.49,-427.13 294.49,-417.97 294.49,-409.42"/>
<polygon fill="black" stroke="black" points="297.99,-409.41 294.49,-399.41 290.99,-409.41 297.99,-409.41"/>
</g>
<!-- com.example.rail.domain.model.calculation.payment&#45;&gt;com.example.rail.domain.model.faresystem._foundation -->
<g id="edge10" class="edge">
<title>com.example.rail.domain.model.calculation.payment&#45;&gt;com.example.rail.domain.model.faresystem._foundation</title>
<path fill="none" stroke="black" d="M257.09,-434.87C243.12,-426.07 228.67,-414.1 220.49,-399 167.92,-301.95 210.38,-261.34 207.49,-151 207.05,-134.12 199.89,-128.08 207.49,-113 213.6,-100.89 223.85,-90.81 234.77,-82.78"/>
<polygon fill="black" stroke="black" points="236.9,-85.56 243.19,-77.03 232.96,-79.78 236.9,-85.56"/>
</g>
</g>
</svg>
