<?xml version="1.0" encoding="UTF-8" standalone="no"?>
<!DOCTYPE svg PUBLIC "-//W3C//DTD SVG 1.1//EN"
 "http://www.w3.org/Graphics/SVG/1.1/DTD/svg11.dtd">
<!-- Generated by graphviz version 2.46.1 (20210213.1702)
 -->
<!-- Title: パッケージ関連図 Pages: 1 -->
<svg width="2141pt" height="625pt"
 viewBox="0.00 0.00 2141.00 625.00" xmlns="http://www.w3.org/2000/svg" xmlns:xlink="http://www.w3.org/1999/xlink">
<g id="graph0" class="graph" transform="scale(1 1) rotate(0) translate(4 621)">
<title>パッケージ関連図</title>
<polygon fill="white" stroke="transparent" points="-4,4 -4,-621 2137,-621 2137,4 -4,4"/>
<text text-anchor="middle" x="1066.5" y="-7.8" font-family="Times,serif" font-size="14.00">パッケージ関連図</text>
<g id="clust1" class="cluster">
<title>cluster_com.example.rail.domain.model.faresystem.rule</title>
<polygon fill="lemonchiffon" stroke="#eedd82" stroke-width="2" points="1252,-231 1252,-423 1783,-423 1783,-231 1252,-231"/>
<text text-anchor="middle" x="1517.5" y="-407.8" font-family="Times,serif" font-size="14.00">ルール</text>
<text text-anchor="middle" x="1517.5" y="-392.8" font-family="Times,serif" font-size="14.00">faresystem.rule</text>
</g>
<g id="clust2" class="cluster">
<title>cluster_com.example.rail.domain.model.faresystem.factor</title>
<polygon fill="lemonchiffon" stroke="#eedd82" stroke-width="2" points="53,-131 53,-223 712,-223 712,-131 53,-131"/>
<text text-anchor="middle" x="382.5" y="-207.8" font-family="Times,serif" font-size="14.00">ファクター</text>
<text text-anchor="middle" x="382.5" y="-192.8" font-family="Times,serif" font-size="14.00">faresystem.factor</text>
</g>
<g id="clust3" class="cluster">
<title>cluster_com.example.rail.domain.model.calculation.fare</title>
<polygon fill="lemonchiffon" stroke="#eedd82" stroke-width="2" points="1899,-331 1899,-423 2075,-423 2075,-331 1899,-331"/>
<text text-anchor="middle" x="1987" y="-407.8" font-family="Times,serif" font-size="14.00">【運賃計算】運賃</text>
<text text-anchor="middle" x="1987" y="-392.8" font-family="Times,serif" font-size="14.00">calculation.fare</text>
</g>
<g id="clust4" class="cluster">
<title>cluster_com.example.rail.domain.model.faresystem.pricing</title>
<polygon fill="lemonchiffon" stroke="#eedd82" stroke-width="2" points="685,-231 685,-323 1244,-323 1244,-231 685,-231"/>
<text text-anchor="middle" x="964.5" y="-307.8" font-family="Times,serif" font-size="14.00">価格設定</text>
<text text-anchor="middle" x="964.5" y="-292.8" font-family="Times,serif" font-size="14.00">faresystem.pricing</text>
</g>
<g id="clust5" class="cluster">
<title>cluster_com.example.rail.domain.model.faresystem._foundation</title>
<polygon fill="lemonchiffon" stroke="#eedd82" stroke-width="2" points="715,-31 715,-123 977,-123 977,-31 715,-31"/>
<text text-anchor="middle" x="846" y="-107.8" font-family="Times,serif" font-size="14.00">基礎型</text>
<text text-anchor="middle" x="846" y="-92.8" font-family="Times,serif" font-size="14.00">faresystem._foundation</text>
</g>
<!-- summary -->
<g id="node1" class="node">
<title>summary</title>
<polygon fill="none" stroke="black" points="436.5,-617 319.5,-617 319.5,-579 442.5,-579 442.5,-611 436.5,-617"/>
<polyline fill="none" stroke="black" points="436.5,-617 436.5,-611 "/>
<polyline fill="none" stroke="black" points="442.5,-611 436.5,-611 "/>
<text text-anchor="start" x="327.5" y="-601.8" font-family="Times,serif" font-size="14.00">パッケージ数: 20</text>
<text text-anchor="start" x="327.5" y="-586.8" font-family="Times,serif" font-size="14.00">関連数: 58</text>
</g>
<!-- com.example.rail.domain.model.faresystem.rule.express -->
<g id="node2" class="node">
<title>com.example.rail.domain.model.faresystem.rule.express</title>
<polygon fill="#eedd82" stroke="black" points="1611.5,-377 1466.5,-377 1466.5,-339 1611.5,-339 1611.5,-377"/>
<text text-anchor="middle" x="1539" y="-361.8" font-family="Times,serif" font-size="14.00">【ルール】特急料金</text>
<text text-anchor="middle" x="1539" y="-346.8" font-family="Times,serif" font-size="14.00">express</text>
</g>
<!-- com.example.rail.domain.model.faresystem.pricing.discount -->
<g id="node3" class="node">
<title>com.example.rail.domain.model.faresystem.pricing.discount</title>
<polygon fill="#eedd82" stroke="black" points="1235.5,-277 1104.5,-277 1104.5,-239 1235.5,-239 1235.5,-277"/>
<text text-anchor="middle" x="1170" y="-261.8" font-family="Times,serif" font-size="14.00">【価格設定】割引</text>
<text text-anchor="middle" x="1170" y="-246.8" font-family="Times,serif" font-size="14.00">discount</text>
</g>
<!-- com.example.rail.domain.model.faresystem.rule.express&#45;&gt;com.example.rail.domain.model.faresystem.pricing.discount -->
<g id="edge1" class="edge">
<title>com.example.rail.domain.model.faresystem.rule.express&#45;&gt;com.example.rail.domain.model.faresystem.pricing.discount</title>
<path fill="none" stroke="black" d="M1489.23,-338.88C1478.71,-335.71 1467.59,-332.85 1457,-331 1411.21,-323.02 1291.45,-339.49 1248,-323 1226.86,-314.98 1207.2,-298.77 1192.91,-284.68"/>
<polygon fill="black" stroke="black" points="1195.04,-281.84 1185.55,-277.13 1190.03,-286.73 1195.04,-281.84"/>
</g>
<!-- com.example.rail.domain.model.faresystem.factor.route -->
<g id="node14" class="node">
<title>com.example.rail.domain.model.faresystem.factor.route</title>
<polygon fill="#eedd82" stroke="black" points="703.5,-177 560.5,-177 560.5,-139 703.5,-139 703.5,-177"/>
<text text-anchor="middle" x="632" y="-161.8" font-family="Times,serif" font-size="14.00">【ファクター】経路</text>
<text text-anchor="middle" x="632" y="-146.8" font-family="Times,serif" font-size="14.00">route</text>
</g>
<!-- com.example.rail.domain.model.faresystem.rule.express&#45;&gt;com.example.rail.domain.model.faresystem.factor.route -->
<g id="edge47" class="edge">
<title>com.example.rail.domain.model.faresystem.rule.express&#45;&gt;com.example.rail.domain.model.faresystem.factor.route</title>
<path fill="none" stroke="black" d="M1490.14,-338.9C1479.37,-335.65 1467.91,-332.74 1457,-331 1445.42,-329.15 621.25,-331.33 613,-323 577.36,-287.02 599.97,-222.57 617.4,-186.1"/>
<polygon fill="black" stroke="black" points="620.59,-187.54 621.91,-177.03 614.32,-184.43 620.59,-187.54"/>
</g>
<!-- com.example.rail.domain.model.faresystem._foundation.monetary -->
<g id="node15" class="node">
<title>com.example.rail.domain.model.faresystem._foundation.monetary</title>
<polygon fill="#eedd82" stroke="black" points="969,-77 895,-77 895,-39 969,-39 969,-77"/>
<text text-anchor="middle" x="932" y="-61.8" font-family="Times,serif" font-size="14.00">金銭関連</text>
<text text-anchor="middle" x="932" y="-46.8" font-family="Times,serif" font-size="14.00">monetary</text>
</g>
<!-- com.example.rail.domain.model.faresystem.rule.express&#45;&gt;com.example.rail.domain.model.faresystem._foundation.monetary -->
<g id="edge26" class="edge">
<title>com.example.rail.domain.model.faresystem.rule.express&#45;&gt;com.example.rail.domain.model.faresystem._foundation.monetary</title>
<path fill="none" stroke="black" d="M1490.14,-338.91C1479.37,-335.65 1467.91,-332.74 1457,-331 1445.95,-329.23 658.88,-330.96 651,-323 622.23,-293.94 623.08,-260.87 651,-231 668.94,-211.8 746.18,-236.04 769,-223 812.03,-198.42 789.98,-157.27 832,-131 852.57,-118.14 865.28,-135.63 886,-123 900.34,-114.26 911.5,-99.2 919.23,-85.88"/>
<polygon fill="black" stroke="black" points="922.34,-87.5 924.04,-77.04 916.19,-84.16 922.34,-87.5"/>
</g>
<!-- com.example.rail.domain.model.faresystem.pricing.byRoute -->
<g id="node20" class="node">
<title>com.example.rail.domain.model.faresystem.pricing.byRoute</title>
<polygon fill="#eedd82" stroke="black" points="1086.5,-277 913.5,-277 913.5,-239 1086.5,-239 1086.5,-277"/>
<text text-anchor="middle" x="1000" y="-261.8" font-family="Times,serif" font-size="14.00">【価格設定】経路ベース</text>
<text text-anchor="middle" x="1000" y="-246.8" font-family="Times,serif" font-size="14.00">byRoute</text>
</g>
<!-- com.example.rail.domain.model.faresystem.rule.express&#45;&gt;com.example.rail.domain.model.faresystem.pricing.byRoute -->
<g id="edge31" class="edge">
<title>com.example.rail.domain.model.faresystem.rule.express&#45;&gt;com.example.rail.domain.model.faresystem.pricing.byRoute</title>
<path fill="none" stroke="black" d="M1489.69,-338.88C1479.04,-335.67 1467.75,-332.79 1457,-331 1417.42,-324.43 1134.27,-335.05 1096,-323 1070.65,-315.02 1045.79,-298.12 1027.72,-283.69"/>
<polygon fill="black" stroke="black" points="1029.87,-280.92 1019.92,-277.27 1025.42,-286.33 1029.87,-280.92"/>
</g>
<!-- com.example.rail.domain.model.faresystem.factor.equipment -->
<g id="node21" class="node">
<title>com.example.rail.domain.model.faresystem.factor.equipment</title>
<polygon fill="#eedd82" stroke="black" points="204.5,-177 61.5,-177 61.5,-139 204.5,-139 204.5,-177"/>
<text text-anchor="middle" x="133" y="-161.8" font-family="Times,serif" font-size="14.00">【ファクター】設備</text>
<text text-anchor="middle" x="133" y="-146.8" font-family="Times,serif" font-size="14.00">equipment</text>
</g>
<!-- com.example.rail.domain.model.faresystem.rule.express&#45;&gt;com.example.rail.domain.model.faresystem.factor.equipment -->
<g id="edge28" class="edge">
<title>com.example.rail.domain.model.faresystem.rule.express&#45;&gt;com.example.rail.domain.model.faresystem.factor.equipment</title>
<path fill="none" stroke="black" d="M1490.14,-338.89C1479.37,-335.63 1467.92,-332.73 1457,-331 1428.36,-326.46 438.8,-336.25 413,-323 368.01,-299.89 390.37,-255.29 346,-231 320.22,-216.89 241.46,-233.48 214,-223 192.33,-214.73 171.86,-198.46 156.93,-184.4"/>
<polygon fill="black" stroke="black" points="159.25,-181.77 149.64,-177.3 154.36,-186.78 159.25,-181.77"/>
</g>
<!-- com.example.rail.domain.model.faresystem.factor.date -->
<g id="node4" class="node">
<title>com.example.rail.domain.model.faresystem.factor.date</title>
<polygon fill="#eedd82" stroke="black" points="542.5,-177 399.5,-177 399.5,-139 542.5,-139 542.5,-177"/>
<text text-anchor="middle" x="471" y="-161.8" font-family="Times,serif" font-size="14.00">【ファクター】日付</text>
<text text-anchor="middle" x="471" y="-146.8" font-family="Times,serif" font-size="14.00">date</text>
</g>
<!-- com.example.rail.domain.model.faresystem.pricing.discount&#45;&gt;com.example.rail.domain.model.faresystem.factor.date -->
<g id="edge2" class="edge">
<title>com.example.rail.domain.model.faresystem.pricing.discount&#45;&gt;com.example.rail.domain.model.faresystem.factor.date</title>
<path fill="none" stroke="black" d="M1126.02,-238.94C1116.29,-235.69 1105.92,-232.77 1096,-231 1066.24,-225.7 580.48,-233.13 552,-223 530,-215.18 509.41,-198.74 494.5,-184.48"/>
<polygon fill="black" stroke="black" points="496.8,-181.84 487.24,-177.28 491.87,-186.81 496.8,-181.84"/>
</g>
<!-- com.example.rail.domain.model.faresystem._foundation.datetime -->
<g id="node11" class="node">
<title>com.example.rail.domain.model.faresystem._foundation.datetime</title>
<polygon fill="#eedd82" stroke="black" points="797,-77 723,-77 723,-39 797,-39 797,-77"/>
<text text-anchor="middle" x="760" y="-61.8" font-family="Times,serif" font-size="14.00">日時関連</text>
<text text-anchor="middle" x="760" y="-46.8" font-family="Times,serif" font-size="14.00">datetime</text>
</g>
<!-- com.example.rail.domain.model.faresystem.pricing.discount&#45;&gt;com.example.rail.domain.model.faresystem._foundation.datetime -->
<g id="edge21" class="edge">
<title>com.example.rail.domain.model.faresystem.pricing.discount&#45;&gt;com.example.rail.domain.model.faresystem._foundation.datetime</title>
<path fill="none" stroke="black" d="M1125.17,-238.97C1115.68,-235.8 1105.62,-232.91 1096,-231 1063.47,-224.55 978.29,-233.96 947,-223 874.83,-197.72 861.42,-176.71 807,-123 795.63,-111.78 784.92,-97.6 776.61,-85.45"/>
<polygon fill="black" stroke="black" points="779.46,-83.41 771,-77.02 773.63,-87.29 779.46,-83.41"/>
</g>
<!-- com.example.rail.domain.model.faresystem.pricing.discount&#45;&gt;com.example.rail.domain.model.faresystem._foundation.monetary -->
<g id="edge11" class="edge">
<title>com.example.rail.domain.model.faresystem.pricing.discount&#45;&gt;com.example.rail.domain.model.faresystem._foundation.monetary</title>
<path fill="none" stroke="black" d="M1148.04,-238.73C1105.18,-203.07 1010.35,-124.18 961.85,-83.83"/>
<polygon fill="black" stroke="black" points="963.84,-80.93 953.91,-77.23 959.36,-86.31 963.84,-80.93"/>
</g>
<!-- com.example.rail.domain.model.faresystem.factor.date&#45;&gt;com.example.rail.domain.model.faresystem._foundation.datetime -->
<g id="edge39" class="edge">
<title>com.example.rail.domain.model.faresystem.factor.date&#45;&gt;com.example.rail.domain.model.faresystem._foundation.datetime</title>
<path fill="none" stroke="black" d="M524.34,-138.91C578.43,-120.57 661.32,-92.46 713,-74.94"/>
<polygon fill="black" stroke="black" points="714.25,-78.21 722.59,-71.68 712,-71.58 714.25,-78.21"/>
</g>
<!-- com.example.rail.domain.model.faresystem.rule.pax -->
<g id="node5" class="node">
<title>com.example.rail.domain.model.faresystem.rule.pax</title>
<polygon fill="#eedd82" stroke="black" points="1774.5,-277 1615.5,-277 1615.5,-239 1774.5,-239 1774.5,-277"/>
<text text-anchor="middle" x="1695" y="-261.8" font-family="Times,serif" font-size="14.00">【ルール】適用乗客数</text>
<text text-anchor="middle" x="1695" y="-246.8" font-family="Times,serif" font-size="14.00">pax</text>
</g>
<!-- com.example.rail.domain.model.faresystem.factor.passenger -->
<g id="node6" class="node">
<title>com.example.rail.domain.model.faresystem.factor.passenger</title>
<polygon fill="#eedd82" stroke="black" points="381,-177 223,-177 223,-139 381,-139 381,-177"/>
<text text-anchor="middle" x="302" y="-161.8" font-family="Times,serif" font-size="14.00">【ファクター】乗客数</text>
<text text-anchor="middle" x="302" y="-146.8" font-family="Times,serif" font-size="14.00">passenger</text>
</g>
<!-- com.example.rail.domain.model.faresystem.rule.pax&#45;&gt;com.example.rail.domain.model.faresystem.factor.passenger -->
<g id="edge3" class="edge">
<title>com.example.rail.domain.model.faresystem.rule.pax&#45;&gt;com.example.rail.domain.model.faresystem.factor.passenger</title>
<path fill="none" stroke="black" d="M1615.47,-247.81C1559.5,-241.78 1482.77,-234.41 1415,-231 1386.59,-229.57 418.04,-231.83 391,-223 367.06,-215.18 344.08,-198.34 327.48,-183.9"/>
<polygon fill="black" stroke="black" points="329.64,-181.13 319.86,-177.05 324.96,-186.34 329.64,-181.13"/>
</g>
<!-- com.example.rail.domain.model.faresystem.rule.group -->
<g id="node7" class="node">
<title>com.example.rail.domain.model.faresystem.rule.group</title>
<polygon fill="#eedd82" stroke="black" points="1774.5,-377 1629.5,-377 1629.5,-339 1774.5,-339 1774.5,-377"/>
<text text-anchor="middle" x="1702" y="-361.8" font-family="Times,serif" font-size="14.00">【ルール】団体割引</text>
<text text-anchor="middle" x="1702" y="-346.8" font-family="Times,serif" font-size="14.00">group</text>
</g>
<!-- com.example.rail.domain.model.faresystem.rule.group&#45;&gt;com.example.rail.domain.model.faresystem.pricing.discount -->
<g id="edge10" class="edge">
<title>com.example.rail.domain.model.faresystem.rule.group&#45;&gt;com.example.rail.domain.model.faresystem.pricing.discount</title>
<path fill="none" stroke="black" d="M1653.3,-338.87C1642.79,-335.66 1631.63,-332.78 1621,-331 1580.12,-324.15 1286.88,-337.38 1248,-323 1226.6,-315.08 1206.77,-298.65 1192.47,-284.41"/>
<polygon fill="black" stroke="black" points="1194.98,-281.98 1185.51,-277.23 1189.95,-286.85 1194.98,-281.98"/>
</g>
<!-- com.example.rail.domain.model.faresystem.rule.group&#45;&gt;com.example.rail.domain.model.faresystem.factor.date -->
<g id="edge46" class="edge">
<title>com.example.rail.domain.model.faresystem.rule.group&#45;&gt;com.example.rail.domain.model.faresystem.factor.date</title>
<path fill="none" stroke="black" d="M1653.75,-338.89C1643.11,-335.64 1631.79,-332.73 1621,-331 1594.4,-326.72 676.09,-332.83 651,-323 579.46,-294.96 518.77,-224.07 489.59,-185.31"/>
<polygon fill="black" stroke="black" points="492.28,-183.05 483.51,-177.1 486.65,-187.22 492.28,-183.05"/>
</g>
<!-- com.example.rail.domain.model.faresystem.rule.group&#45;&gt;com.example.rail.domain.model.faresystem.rule.pax -->
<g id="edge25" class="edge">
<title>com.example.rail.domain.model.faresystem.rule.group&#45;&gt;com.example.rail.domain.model.faresystem.rule.pax</title>
<path fill="none" stroke="black" d="M1700.68,-338.57C1699.65,-324.1 1698.19,-303.72 1697.02,-287.21"/>
<polygon fill="black" stroke="black" points="1700.49,-286.74 1696.29,-277.02 1693.51,-287.24 1700.49,-286.74"/>
</g>
<!-- com.example.rail.domain.model.faresystem.rule.group&#45;&gt;com.example.rail.domain.model.faresystem.factor.passenger -->
<g id="edge51" class="edge">
<title>com.example.rail.domain.model.faresystem.rule.group&#45;&gt;com.example.rail.domain.model.faresystem.factor.passenger</title>
<path fill="none" stroke="black" d="M1653.75,-338.88C1643.11,-335.63 1631.79,-332.73 1621,-331 1590.99,-326.19 555.62,-333.23 527,-323 465.69,-301.09 469.7,-263 413,-231 403.94,-225.89 400.2,-227.86 391,-223 370.08,-211.95 348.49,-196.53 331.81,-183.6"/>
<polygon fill="black" stroke="black" points="333.59,-180.55 323.57,-177.1 329.25,-186.04 333.59,-180.55"/>
</g>
<!-- com.example.rail.domain.model.faresystem.rule.basis -->
<g id="node8" class="node">
<title>com.example.rail.domain.model.faresystem.rule.basis</title>
<polygon fill="#eedd82" stroke="black" points="1405.5,-277 1260.5,-277 1260.5,-239 1405.5,-239 1405.5,-277"/>
<text text-anchor="middle" x="1333" y="-261.8" font-family="Times,serif" font-size="14.00">【ルール】普通運賃</text>
<text text-anchor="middle" x="1333" y="-246.8" font-family="Times,serif" font-size="14.00">basis</text>
</g>
<!-- com.example.rail.domain.model.faresystem.rule.group&#45;&gt;com.example.rail.domain.model.faresystem.rule.basis -->
<g id="edge4" class="edge">
<title>com.example.rail.domain.model.faresystem.rule.group&#45;&gt;com.example.rail.domain.model.faresystem.rule.basis</title>
<path fill="none" stroke="black" d="M1647.25,-338.89C1638.5,-336.15 1629.52,-333.43 1621,-331 1552.13,-311.36 1473.17,-291.83 1415.36,-278.07"/>
<polygon fill="black" stroke="black" points="1416.09,-274.65 1405.55,-275.74 1414.47,-281.46 1416.09,-274.65"/>
</g>
<!-- com.example.rail.domain.model.faresystem.rule.group&#45;&gt;com.example.rail.domain.model.faresystem._foundation.monetary -->
<g id="edge30" class="edge">
<title>com.example.rail.domain.model.faresystem.rule.group&#45;&gt;com.example.rail.domain.model.faresystem._foundation.monetary</title>
<path fill="none" stroke="black" d="M1653.75,-338.89C1643.11,-335.64 1631.79,-332.74 1621,-331 1608.11,-328.93 690.19,-332.27 681,-323 652.21,-293.96 652.97,-260.77 681,-231 691.15,-220.22 801.65,-231.16 814,-223 852.15,-197.81 825.12,-160.55 860,-131 869.23,-123.19 876.18,-130.05 886,-123 899.23,-113.49 910.11,-98.98 917.96,-86.18"/>
<polygon fill="black" stroke="black" points="921.14,-87.66 923.13,-77.25 915.09,-84.15 921.14,-87.66"/>
</g>
<!-- com.example.rail.domain.model.faresystem.rule.basis&#45;&gt;com.example.rail.domain.model.faresystem.factor.route -->
<g id="edge49" class="edge">
<title>com.example.rail.domain.model.faresystem.rule.basis&#45;&gt;com.example.rail.domain.model.faresystem.factor.route</title>
<path fill="none" stroke="black" d="M1281.84,-238.92C1270.81,-235.71 1259.12,-232.81 1248,-231 1181.96,-220.23 1013.48,-230.58 947,-223 866.48,-213.82 775.94,-194.46 712.66,-179.42"/>
<polygon fill="black" stroke="black" points="713.29,-175.97 702.75,-177.05 711.66,-182.78 713.29,-175.97"/>
</g>
<!-- com.example.rail.domain.model.faresystem.rule.basis&#45;&gt;com.example.rail.domain.model.faresystem._foundation.monetary -->
<g id="edge43" class="edge">
<title>com.example.rail.domain.model.faresystem.rule.basis&#45;&gt;com.example.rail.domain.model.faresystem._foundation.monetary</title>
<path fill="none" stroke="black" d="M1298.58,-238.84C1251.21,-213.97 1163.11,-168.15 1087,-131 1050.75,-113.31 1009.3,-94.1 978.38,-79.98"/>
<polygon fill="black" stroke="black" points="979.7,-76.73 969.14,-75.77 976.79,-83.1 979.7,-76.73"/>
</g>
<!-- com.example.rail.domain.model.faresystem._foundation.distance -->
<g id="node18" class="node">
<title>com.example.rail.domain.model.faresystem._foundation.distance</title>
<polygon fill="#eedd82" stroke="black" points="876.5,-77 815.5,-77 815.5,-39 876.5,-39 876.5,-77"/>
<text text-anchor="middle" x="846" y="-61.8" font-family="Times,serif" font-size="14.00">距離</text>
<text text-anchor="middle" x="846" y="-46.8" font-family="Times,serif" font-size="14.00">distance</text>
</g>
<!-- com.example.rail.domain.model.faresystem.rule.basis&#45;&gt;com.example.rail.domain.model.faresystem._foundation.distance -->
<g id="edge18" class="edge">
<title>com.example.rail.domain.model.faresystem.rule.basis&#45;&gt;com.example.rail.domain.model.faresystem._foundation.distance</title>
<path fill="none" stroke="black" d="M1281.35,-238.97C1270.46,-235.8 1258.95,-232.91 1248,-231 1175.67,-218.39 1153.97,-241.81 1083,-223 1035.54,-210.42 922.22,-156.14 886,-123 874.75,-112.71 865.47,-98.55 858.68,-86.17"/>
<polygon fill="black" stroke="black" points="861.71,-84.4 853.99,-77.14 855.5,-87.63 861.71,-84.4"/>
</g>
<!-- com.example.rail.domain.model.faresystem.rule.basis&#45;&gt;com.example.rail.domain.model.faresystem.pricing.byRoute -->
<g id="edge56" class="edge">
<title>com.example.rail.domain.model.faresystem.rule.basis&#45;&gt;com.example.rail.domain.model.faresystem.pricing.byRoute</title>
<path fill="none" stroke="black" d="M1310.94,-277.18C1294.36,-291.01 1270.69,-309.54 1248,-323 1244.24,-325.23 1243.28,-326.09 1239,-327 1224.44,-330.09 1119.56,-330.09 1105,-327 1075.18,-320.67 1046.63,-300.69 1026.85,-283.85"/>
<polygon fill="black" stroke="black" points="1029.01,-281.09 1019.19,-277.11 1024.38,-286.34 1029.01,-281.09"/>
</g>
<!-- com.example.rail.domain.model.calculation.fare -->
<g id="node9" class="node">
<title>com.example.rail.domain.model.calculation.fare</title>
<polygon fill="#eedd82" stroke="black" points="1948.5,-469 1817.5,-469 1817.5,-431 1948.5,-431 1948.5,-469"/>
<text text-anchor="middle" x="1883" y="-453.8" font-family="Times,serif" font-size="14.00">【運賃計算】運賃</text>
<text text-anchor="middle" x="1883" y="-438.8" font-family="Times,serif" font-size="14.00">calculation.fare</text>
</g>
<!-- com.example.rail.domain.model.calculation.fare&#45;&gt;com.example.rail.domain.model.faresystem.rule.pax -->
<g id="edge5" class="edge">
<title>com.example.rail.domain.model.calculation.fare&#45;&gt;com.example.rail.domain.model.faresystem.rule.pax</title>
<path fill="none" stroke="black" d="M1883.43,-430.86C1883.08,-405.66 1878.87,-359.89 1855,-331 1835.74,-307.68 1807.35,-291.62 1779.81,-280.7"/>
<polygon fill="black" stroke="black" points="1780.71,-277.3 1770.12,-277.04 1778.24,-283.85 1780.71,-277.3"/>
</g>
<!-- com.example.rail.domain.model.calculation.fare.details -->
<g id="node17" class="node">
<title>com.example.rail.domain.model.calculation.fare.details</title>
<polygon fill="#eedd82" stroke="black" points="2066.5,-377 1907.5,-377 1907.5,-339 2066.5,-339 2066.5,-377"/>
<text text-anchor="middle" x="1987" y="-361.8" font-family="Times,serif" font-size="14.00">【運賃計算】運賃詳細</text>
<text text-anchor="middle" x="1987" y="-346.8" font-family="Times,serif" font-size="14.00">details</text>
</g>
<!-- com.example.rail.domain.model.calculation.fare&#45;&gt;com.example.rail.domain.model.calculation.fare.details -->
<g id="edge16" class="edge">
<title>com.example.rail.domain.model.calculation.fare&#45;&gt;com.example.rail.domain.model.calculation.fare.details</title>
<path fill="none" stroke="black" d="M1904.05,-430.79C1919.69,-417.25 1941.22,-398.62 1958.42,-383.73"/>
<polygon fill="black" stroke="black" points="1960.71,-386.38 1965.99,-377.19 1956.13,-381.08 1960.71,-386.38"/>
</g>
<!-- com.example.rail.domain.model.faresystem.pricing.seasonality -->
<g id="node10" class="node">
<title>com.example.rail.domain.model.faresystem.pricing.seasonality</title>
<polygon fill="#eedd82" stroke="black" points="895,-277 693,-277 693,-239 895,-239 895,-277"/>
<text text-anchor="middle" x="794" y="-261.8" font-family="Times,serif" font-size="14.00">【価格設定】季節性変動料金</text>
<text text-anchor="middle" x="794" y="-246.8" font-family="Times,serif" font-size="14.00">seasonality</text>
</g>
<!-- com.example.rail.domain.model.faresystem.pricing.seasonality&#45;&gt;com.example.rail.domain.model.faresystem.factor.date -->
<g id="edge20" class="edge">
<title>com.example.rail.domain.model.faresystem.pricing.seasonality&#45;&gt;com.example.rail.domain.model.faresystem.factor.date</title>
<path fill="none" stroke="black" d="M692.79,-254.65C648.17,-250.65 595.98,-241.81 552,-223 530.81,-213.94 510.47,-197.83 495.48,-184.05"/>
<polygon fill="black" stroke="black" points="497.81,-181.44 488.14,-177.1 492.99,-186.52 497.81,-181.44"/>
</g>
<!-- com.example.rail.domain.model.faresystem.pricing.seasonality&#45;&gt;com.example.rail.domain.model.faresystem._foundation.datetime -->
<g id="edge6" class="edge">
<title>com.example.rail.domain.model.faresystem.pricing.seasonality&#45;&gt;com.example.rail.domain.model.faresystem._foundation.datetime</title>
<path fill="none" stroke="black" d="M790.86,-238.73C784.9,-204.03 771.92,-128.39 764.84,-87.16"/>
<polygon fill="black" stroke="black" points="768.27,-86.49 763.13,-77.23 761.37,-87.68 768.27,-86.49"/>
</g>
<!-- com.example.rail.domain.model.faresystem.pricing.seasonality&#45;&gt;com.example.rail.domain.model.faresystem._foundation.monetary -->
<g id="edge32" class="edge">
<title>com.example.rail.domain.model.faresystem.pricing.seasonality&#45;&gt;com.example.rail.domain.model.faresystem._foundation.monetary</title>
<path fill="none" stroke="black" d="M839.47,-238.86C846.97,-234.46 854.17,-229.2 860,-223 896.76,-183.88 916.69,-122.94 925.76,-87.4"/>
<polygon fill="black" stroke="black" points="929.27,-87.78 928.24,-77.24 922.47,-86.12 929.27,-87.78"/>
</g>
<!-- com.example.rail.domain.model.calculation -->
<g id="node12" class="node">
<title>com.example.rail.domain.model.calculation</title>
<polygon fill="#eedd82" stroke="black" points="537,-617 461,-617 461,-579 537,-579 537,-617"/>
<text text-anchor="middle" x="499" y="-601.8" font-family="Times,serif" font-size="14.00">運賃計算</text>
<text text-anchor="middle" x="499" y="-586.8" font-family="Times,serif" font-size="14.00">calculation</text>
</g>
<!-- com.example.rail.domain.model.calculation&#45;&gt;com.example.rail.domain.model.faresystem.factor.date -->
<g id="edge7" class="edge">
<title>com.example.rail.domain.model.calculation&#45;&gt;com.example.rail.domain.model.faresystem.factor.date</title>
<path fill="none" stroke="black" d="M460.82,-582.25C457.84,-581.14 454.87,-580.04 452,-579 405.62,-562.18 375.67,-583.14 347,-543 263.63,-426.28 392.93,-250.64 448.05,-184.98"/>
<polygon fill="black" stroke="black" points="450.88,-187.06 454.69,-177.17 445.55,-182.52 450.88,-187.06"/>
</g>
<!-- com.example.rail.domain.model.calculation&#45;&gt;com.example.rail.domain.model.faresystem.rule.pax -->
<g id="edge57" class="edge">
<title>com.example.rail.domain.model.calculation&#45;&gt;com.example.rail.domain.model.faresystem.rule.pax</title>
<path fill="none" stroke="black" d="M537.13,-597.03C770.7,-597.06 2000.02,-594.74 2059,-543 2130.14,-480.59 2139.44,-403.83 2079,-331 2042.36,-286.85 1886.42,-269.61 1784.88,-262.99"/>
<polygon fill="black" stroke="black" points="1784.82,-259.48 1774.62,-262.35 1784.38,-266.47 1784.82,-259.48"/>
</g>
<!-- com.example.rail.domain.model.calculation&#45;&gt;com.example.rail.domain.model.faresystem.factor.passenger -->
<g id="edge12" class="edge">
<title>com.example.rail.domain.model.calculation&#45;&gt;com.example.rail.domain.model.faresystem.factor.passenger</title>
<path fill="none" stroke="black" d="M460.89,-582.06C457.89,-580.99 454.9,-579.96 452,-579 269.12,-518.61 38,-643.59 38,-451 38,-451 38,-451 38,-357 38,-353.43 198.16,-235.3 268.99,-183.24"/>
<polygon fill="black" stroke="black" points="271.18,-185.97 277.16,-177.23 267.03,-180.33 271.18,-185.97"/>
</g>
<!-- com.example.rail.domain.model.calculation&#45;&gt;com.example.rail.domain.model.calculation.fare -->
<g id="edge17" class="edge">
<title>com.example.rail.domain.model.calculation&#45;&gt;com.example.rail.domain.model.calculation.fare</title>
<path fill="none" stroke="black" d="M537.1,-592.98C724.66,-573.19 1551.18,-486 1807.16,-459"/>
<polygon fill="black" stroke="black" points="1807.9,-462.44 1817.47,-457.91 1807.16,-455.48 1807.9,-462.44"/>
</g>
<!-- com.example.rail.domain.model.calculation.calculator -->
<g id="node13" class="node">
<title>com.example.rail.domain.model.calculation.calculator</title>
<polygon fill="#eedd82" stroke="black" points="1201.5,-469 1028.5,-469 1028.5,-431 1201.5,-431 1201.5,-469"/>
<text text-anchor="middle" x="1115" y="-453.8" font-family="Times,serif" font-size="14.00">【運賃計算】運賃計算機</text>
<text text-anchor="middle" x="1115" y="-438.8" font-family="Times,serif" font-size="14.00">calculation.calculator</text>
</g>
<!-- com.example.rail.domain.model.calculation&#45;&gt;com.example.rail.domain.model.calculation.calculator -->
<g id="edge37" class="edge">
<title>com.example.rail.domain.model.calculation&#45;&gt;com.example.rail.domain.model.calculation.calculator</title>
<path fill="none" stroke="black" d="M537.07,-587.98C634.18,-564.96 893.05,-503.61 1028.95,-471.39"/>
<polygon fill="black" stroke="black" points="1029.99,-474.74 1038.92,-469.03 1028.38,-467.93 1029.99,-474.74"/>
</g>
<!-- com.example.rail.domain.model.calculation&#45;&gt;com.example.rail.domain.model.faresystem.factor.route -->
<g id="edge14" class="edge">
<title>com.example.rail.domain.model.calculation&#45;&gt;com.example.rail.domain.model.faresystem.factor.route</title>
<path fill="none" stroke="black" d="M463.1,-578.92C422.21,-555.48 361,-510.47 361,-451 361,-451 361,-451 361,-357 361,-253.3 469.03,-285.2 552,-223 568.93,-210.31 587.4,-195.59 602.33,-183.47"/>
<polygon fill="black" stroke="black" points="604.68,-186.07 610.22,-177.04 600.26,-180.64 604.68,-186.07"/>
</g>
<!-- com.example.rail.domain.model.calculation.payment -->
<g id="node19" class="node">
<title>com.example.rail.domain.model.calculation.payment</title>
<polygon fill="#eedd82" stroke="black" points="2049.5,-543 1918.5,-543 1918.5,-505 2049.5,-505 2049.5,-543"/>
<text text-anchor="middle" x="1984" y="-527.8" font-family="Times,serif" font-size="14.00">【運賃計算】支払</text>
<text text-anchor="middle" x="1984" y="-512.8" font-family="Times,serif" font-size="14.00">calculation.payment</text>
</g>
<!-- com.example.rail.domain.model.calculation&#45;&gt;com.example.rail.domain.model.calculation.payment -->
<g id="edge34" class="edge">
<title>com.example.rail.domain.model.calculation&#45;&gt;com.example.rail.domain.model.calculation.payment</title>
<path fill="none" stroke="black" d="M537.2,-595.15C734.41,-585.59 1638.51,-541.75 1907.99,-528.69"/>
<polygon fill="black" stroke="black" points="1908.25,-532.18 1918.06,-528.2 1907.91,-525.19 1908.25,-532.18"/>
</g>
<!-- com.example.rail.domain.model.calculation&#45;&gt;com.example.rail.domain.model.faresystem.factor.equipment -->
<g id="edge33" class="edge">
<title>com.example.rail.domain.model.calculation&#45;&gt;com.example.rail.domain.model.faresystem.factor.equipment</title>
<path fill="none" stroke="black" d="M460.8,-581.38C457.85,-580.48 454.89,-579.67 452,-579 363.31,-558.53 118.79,-594.87 44,-543 6.76,-517.17 0,-496.32 0,-451 0,-451 0,-451 0,-357 0,-284.32 62.52,-218.23 101.83,-183.85"/>
<polygon fill="black" stroke="black" points="104.51,-186.17 109.83,-177.01 99.96,-180.85 104.51,-186.17"/>
</g>
<!-- com.example.rail.domain.model.calculation.calculator&#45;&gt;com.example.rail.domain.model.faresystem.rule.express -->
<g id="edge53" class="edge">
<title>com.example.rail.domain.model.calculation.calculator&#45;&gt;com.example.rail.domain.model.faresystem.rule.express</title>
<path fill="none" stroke="black" d="M1201.67,-448.09C1287.4,-446.18 1412.09,-440.38 1457,-423 1478.8,-414.56 1499.52,-398.3 1514.67,-384.27"/>
<polygon fill="black" stroke="black" points="1517.26,-386.64 1522.07,-377.2 1512.42,-381.58 1517.26,-386.64"/>
</g>
<!-- com.example.rail.domain.model.calculation.calculator&#45;&gt;com.example.rail.domain.model.faresystem.factor.date -->
<g id="edge27" class="edge">
<title>com.example.rail.domain.model.calculation.calculator&#45;&gt;com.example.rail.domain.model.faresystem.factor.date</title>
<path fill="none" stroke="black" d="M1028.44,-447.09C890.99,-443.69 634.14,-435.73 594,-423 514.78,-397.88 476.08,-395.8 436,-323 411.87,-279.17 435.91,-220.29 454.32,-186.31"/>
<polygon fill="black" stroke="black" points="457.47,-187.85 459.32,-177.42 451.36,-184.42 457.47,-187.85"/>
</g>
<!-- com.example.rail.domain.model.calculation.calculator&#45;&gt;com.example.rail.domain.model.faresystem.rule.pax -->
<g id="edge8" class="edge">
<title>com.example.rail.domain.model.calculation.calculator&#45;&gt;com.example.rail.domain.model.faresystem.rule.pax</title>
<path fill="none" stroke="black" d="M1201.73,-448.91C1383.06,-448.29 1787.3,-444.49 1808,-423 1836.37,-393.55 1827.67,-366.85 1808,-331 1796.06,-309.23 1774.43,-293.09 1753.26,-281.68"/>
<polygon fill="black" stroke="black" points="1754.75,-278.51 1744.25,-277.08 1751.56,-284.74 1754.75,-278.51"/>
</g>
<!-- com.example.rail.domain.model.calculation.calculator&#45;&gt;com.example.rail.domain.model.faresystem.factor.passenger -->
<g id="edge42" class="edge">
<title>com.example.rail.domain.model.calculation.calculator&#45;&gt;com.example.rail.domain.model.faresystem.factor.passenger</title>
<path fill="none" stroke="black" d="M1028.47,-447.99C851.25,-445.62 461.5,-438.64 437,-423 352.21,-368.87 318.21,-243.56 306.86,-187.27"/>
<polygon fill="black" stroke="black" points="310.26,-186.45 304.94,-177.29 303.39,-187.77 310.26,-186.45"/>
</g>
<!-- com.example.rail.domain.model.calculation.calculator&#45;&gt;com.example.rail.domain.model.faresystem.rule.group -->
<g id="edge15" class="edge">
<title>com.example.rail.domain.model.calculation.calculator&#45;&gt;com.example.rail.domain.model.faresystem.rule.group</title>
<path fill="none" stroke="black" d="M1201.66,-447.41C1335.97,-444.52 1582.95,-437.32 1621,-423 1642.85,-414.77 1663.44,-398.34 1678.4,-384.19"/>
<polygon fill="black" stroke="black" points="1680.99,-386.55 1685.68,-377.05 1676.09,-381.55 1680.99,-386.55"/>
</g>
<!-- com.example.rail.domain.model.calculation.calculator&#45;&gt;com.example.rail.domain.model.faresystem.rule.basis -->
<g id="edge35" class="edge">
<title>com.example.rail.domain.model.calculation.calculator&#45;&gt;com.example.rail.domain.model.faresystem.rule.basis</title>
<path fill="none" stroke="black" d="M1201.73,-448.78C1378.2,-447.91 1764.15,-443.64 1784,-423 1812.35,-393.53 1812.25,-360.56 1784,-331 1777.2,-323.88 1616.75,-324.35 1607,-323 1537.76,-313.43 1460.31,-294.56 1405.47,-279.78"/>
<polygon fill="black" stroke="black" points="1406.07,-276.32 1395.5,-277.07 1404.24,-283.07 1406.07,-276.32"/>
</g>
<!-- com.example.rail.domain.model.calculation.calculator&#45;&gt;com.example.rail.domain.model.faresystem.factor.route -->
<g id="edge40" class="edge">
<title>com.example.rail.domain.model.calculation.calculator&#45;&gt;com.example.rail.domain.model.faresystem.factor.route</title>
<path fill="none" stroke="black" d="M1028.43,-441.12C893.04,-426.8 641.05,-391.47 587,-323 554.87,-282.3 588,-220.26 611.97,-185.32"/>
<polygon fill="black" stroke="black" points="614.91,-187.23 617.83,-177.04 609.19,-183.19 614.91,-187.23"/>
</g>
<!-- com.example.rail.domain.model.calculation.calculator&#45;&gt;com.example.rail.domain.model.faresystem._foundation.monetary -->
<g id="edge45" class="edge">
<title>com.example.rail.domain.model.calculation.calculator&#45;&gt;com.example.rail.domain.model.faresystem._foundation.monetary</title>
<path fill="none" stroke="black" d="M1028.2,-448.22C813.56,-446.05 272.61,-439.03 237,-423 125.76,-372.93 93.94,-336.42 49,-223 33.94,-184.99 20.23,-160.05 49,-131 65.36,-114.48 865.36,-133.71 886,-123 901.1,-115.17 912.38,-99.85 919.99,-86.16"/>
<polygon fill="black" stroke="black" points="923.21,-87.56 924.68,-77.06 916.99,-84.35 923.21,-87.56"/>
</g>
<!-- com.example.rail.domain.model.faresystem.rule.seasonality -->
<g id="node16" class="node">
<title>com.example.rail.domain.model.faresystem.rule.seasonality</title>
<polygon fill="#eedd82" stroke="black" points="1448,-377 1260,-377 1260,-339 1448,-339 1448,-377"/>
<text text-anchor="middle" x="1354" y="-361.8" font-family="Times,serif" font-size="14.00">【ルール】季節性変動料金</text>
<text text-anchor="middle" x="1354" y="-346.8" font-family="Times,serif" font-size="14.00">seasonality</text>
</g>
<!-- com.example.rail.domain.model.calculation.calculator&#45;&gt;com.example.rail.domain.model.faresystem.rule.seasonality -->
<g id="edge13" class="edge">
<title>com.example.rail.domain.model.calculation.calculator&#45;&gt;com.example.rail.domain.model.faresystem.rule.seasonality</title>
<path fill="none" stroke="black" d="M1163.08,-430.9C1201.57,-416.4 1255.67,-396.03 1296.46,-380.67"/>
<polygon fill="black" stroke="black" points="1297.87,-383.88 1306,-377.08 1295.41,-377.32 1297.87,-383.88"/>
</g>
<!-- com.example.rail.domain.model.calculation.calculator&#45;&gt;com.example.rail.domain.model.calculation.fare.details -->
<g id="edge58" class="edge">
<title>com.example.rail.domain.model.calculation.calculator&#45;&gt;com.example.rail.domain.model.calculation.fare.details</title>
<path fill="none" stroke="black" d="M1201.54,-447.97C1383.31,-445.52 1793.16,-438.35 1855,-423 1888.94,-414.58 1924.45,-396.78 1950.08,-382.08"/>
<polygon fill="black" stroke="black" points="1951.84,-385.1 1958.71,-377.03 1948.31,-379.06 1951.84,-385.1"/>
</g>
<!-- com.example.rail.domain.model.calculation.calculator&#45;&gt;com.example.rail.domain.model.faresystem.factor.equipment -->
<g id="edge44" class="edge">
<title>com.example.rail.domain.model.calculation.calculator&#45;&gt;com.example.rail.domain.model.faresystem.factor.equipment</title>
<path fill="none" stroke="black" d="M1028.49,-447.93C835.4,-445.28 383.83,-437.56 354,-423 248.12,-371.33 174.28,-242.73 145.9,-186.29"/>
<polygon fill="black" stroke="black" points="149,-184.67 141.43,-177.25 142.72,-187.76 149,-184.67"/>
</g>
<!-- com.example.rail.domain.model.faresystem.factor.route&#45;&gt;com.example.rail.domain.model.faresystem._foundation.monetary -->
<g id="edge9" class="edge">
<title>com.example.rail.domain.model.faresystem.factor.route&#45;&gt;com.example.rail.domain.model.faresystem._foundation.monetary</title>
<path fill="none" stroke="black" d="M684.27,-138.97C695.29,-135.8 706.93,-132.91 718,-131 736.42,-127.83 869.58,-131.92 886,-123 900.85,-114.93 912.08,-99.76 919.72,-86.2"/>
<polygon fill="black" stroke="black" points="922.9,-87.67 924.44,-77.19 916.7,-84.43 922.9,-87.67"/>
</g>
<!-- com.example.rail.domain.model.faresystem.factor.route&#45;&gt;com.example.rail.domain.model.faresystem._foundation.distance -->
<g id="edge36" class="edge">
<title>com.example.rail.domain.model.faresystem.factor.route&#45;&gt;com.example.rail.domain.model.faresystem._foundation.distance</title>
<path fill="none" stroke="black" d="M685.71,-138.94C696.32,-135.89 707.44,-133.06 718,-131 737.27,-127.25 789.27,-133.29 806,-123 819.56,-114.66 829.26,-99.82 835.71,-86.53"/>
<polygon fill="black" stroke="black" points="838.97,-87.8 839.84,-77.24 832.58,-84.95 838.97,-87.8"/>
</g>
<!-- com.example.rail.domain.model.faresystem.rule.seasonality&#45;&gt;com.example.rail.domain.model.faresystem.factor.date -->
<g id="edge48" class="edge">
<title>com.example.rail.domain.model.faresystem.rule.seasonality&#45;&gt;com.example.rail.domain.model.faresystem.factor.date</title>
<path fill="none" stroke="black" d="M1259.77,-356.88C1035.84,-356.14 488.35,-351.41 461,-323 426.28,-286.93 443.86,-223.24 458.36,-186.75"/>
<polygon fill="black" stroke="black" points="461.71,-187.8 462.32,-177.23 455.25,-185.12 461.71,-187.8"/>
</g>
<!-- com.example.rail.domain.model.faresystem.rule.seasonality&#45;&gt;com.example.rail.domain.model.faresystem.pricing.seasonality -->
<g id="edge52" class="edge">
<title>com.example.rail.domain.model.faresystem.rule.seasonality&#45;&gt;com.example.rail.domain.model.faresystem.pricing.seasonality</title>
<path fill="none" stroke="black" d="M1259.98,-354.78C1148.27,-351.28 968.96,-342.74 905,-323 876.6,-314.24 847.62,-297.19 826.39,-282.89"/>
<polygon fill="black" stroke="black" points="828.3,-279.96 818.08,-277.17 824.33,-285.72 828.3,-279.96"/>
</g>
<!-- com.example.rail.domain.model.faresystem.rule.seasonality&#45;&gt;com.example.rail.domain.model.faresystem._foundation.monetary -->
<g id="edge23" class="edge">
<title>com.example.rail.domain.model.faresystem.rule.seasonality&#45;&gt;com.example.rail.domain.model.faresystem._foundation.monetary</title>
<path fill="none" stroke="black" d="M1259.78,-356.1C1065.16,-353.76 634.99,-346.02 613,-323 584.76,-293.43 585.23,-261.01 613,-231 628.59,-214.15 695.56,-233.45 716,-223 763.73,-198.6 746.38,-155.62 794,-131 830.46,-112.15 850.32,-143.29 886,-123 900.69,-114.64 911.91,-99.46 919.59,-85.97"/>
<polygon fill="black" stroke="black" points="922.75,-87.49 924.34,-77.01 916.57,-84.21 922.75,-87.49"/>
</g>
<!-- com.example.rail.domain.model.faresystem.rule.seasonality&#45;&gt;com.example.rail.domain.model.faresystem.factor.equipment -->
<g id="edge54" class="edge">
<title>com.example.rail.domain.model.faresystem.rule.seasonality&#45;&gt;com.example.rail.domain.model.faresystem.factor.equipment</title>
<path fill="none" stroke="black" d="M1259.97,-355.57C1041.95,-351.95 514.51,-341.39 436,-323 330.64,-298.32 306.48,-279.19 214,-223 195.26,-211.61 175.93,-196.49 160.86,-183.81"/>
<polygon fill="black" stroke="black" points="162.83,-180.89 152.95,-177.05 158.28,-186.21 162.83,-180.89"/>
</g>
<!-- com.example.rail.domain.model.calculation.fare.details&#45;&gt;com.example.rail.domain.model.faresystem.rule.pax -->
<g id="edge19" class="edge">
<title>com.example.rail.domain.model.calculation.fare.details&#45;&gt;com.example.rail.domain.model.faresystem.rule.pax</title>
<path fill="none" stroke="black" d="M1922.32,-338.95C1912.5,-336.26 1902.49,-333.54 1893,-331 1879.25,-327.33 1875.55,-327.33 1862,-323 1823.1,-310.57 1780.09,-294.02 1747.47,-280.87"/>
<polygon fill="black" stroke="black" points="1748.7,-277.59 1738.12,-277.08 1746.07,-284.08 1748.7,-277.59"/>
</g>
<!-- com.example.rail.domain.model.calculation.fare.details&#45;&gt;com.example.rail.domain.model.faresystem.factor.route -->
<g id="edge29" class="edge">
<title>com.example.rail.domain.model.calculation.fare.details&#45;&gt;com.example.rail.domain.model.faresystem.factor.route</title>
<path fill="none" stroke="black" d="M1960.05,-338.97C1909.95,-305.61 1805.84,-237.08 1787,-231 1587.05,-166.46 942.82,-159.32 713.77,-158.87"/>
<polygon fill="black" stroke="black" points="713.51,-155.37 703.5,-158.85 713.5,-162.37 713.51,-155.37"/>
</g>
<!-- com.example.rail.domain.model.calculation.fare.details&#45;&gt;com.example.rail.domain.model.faresystem._foundation.monetary -->
<g id="edge41" class="edge">
<title>com.example.rail.domain.model.calculation.fare.details&#45;&gt;com.example.rail.domain.model.faresystem._foundation.monetary</title>
<path fill="none" stroke="black" d="M1976.41,-338.97C1958.92,-310.94 1921.18,-257.4 1874,-231 1716.36,-142.79 1147.49,-80.39 979.21,-63.55"/>
<polygon fill="black" stroke="black" points="979.47,-60.06 969.17,-62.55 978.78,-67.03 979.47,-60.06"/>
</g>
<!-- com.example.rail.domain.model.calculation.payment&#45;&gt;com.example.rail.domain.model.calculation.fare -->
<g id="edge38" class="edge">
<title>com.example.rail.domain.model.calculation.payment&#45;&gt;com.example.rail.domain.model.calculation.fare</title>
<path fill="none" stroke="black" d="M1958.51,-504.83C1945.83,-495.79 1930.34,-484.75 1916.69,-475.02"/>
<polygon fill="black" stroke="black" points="1918.65,-472.12 1908.48,-469.16 1914.59,-477.82 1918.65,-472.12"/>
</g>
<!-- com.example.rail.domain.model.calculation.payment&#45;&gt;com.example.rail.domain.model.faresystem._foundation.monetary -->
<g id="edge55" class="edge">
<title>com.example.rail.domain.model.calculation.payment&#45;&gt;com.example.rail.domain.model.faresystem._foundation.monetary</title>
<path fill="none" stroke="black" d="M2018.56,-504.8C2062.57,-478.83 2133,-426.7 2133,-359 2133,-359 2133,-359 2133,-257 2133,-137.91 1201.77,-75.03 979.31,-61.7"/>
<polygon fill="black" stroke="black" points="979.45,-58.2 969.26,-61.11 979.04,-65.19 979.45,-58.2"/>
</g>
<!-- com.example.rail.domain.model.calculation.payment&#45;&gt;com.example.rail.domain.model.calculation.fare.details -->
<g id="edge22" class="edge">
<title>com.example.rail.domain.model.calculation.payment&#45;&gt;com.example.rail.domain.model.calculation.fare.details</title>
<path fill="none" stroke="black" d="M1984.33,-504.82C1984.85,-476.38 1985.86,-421.12 1986.48,-387.39"/>
<polygon fill="black" stroke="black" points="1989.98,-387.32 1986.67,-377.26 1982.98,-387.19 1989.98,-387.32"/>
</g>
<!-- com.example.rail.domain.model.faresystem.pricing.byRoute&#45;&gt;com.example.rail.domain.model.faresystem.factor.route -->
<g id="edge24" class="edge">
<title>com.example.rail.domain.model.faresystem.pricing.byRoute&#45;&gt;com.example.rail.domain.model.faresystem.factor.route</title>
<path fill="none" stroke="black" d="M934.22,-238.94C924.11,-236.23 913.78,-233.51 904,-231 889.38,-227.25 885.62,-226.73 871,-223 816.11,-209 754.35,-192.44 707.37,-179.67"/>
<polygon fill="black" stroke="black" points="708.14,-176.26 697.57,-177.01 706.3,-183.01 708.14,-176.26"/>
</g>
<!-- com.example.rail.domain.model.faresystem.pricing.byRoute&#45;&gt;com.example.rail.domain.model.faresystem._foundation.monetary -->
<g id="edge50" class="edge">
<title>com.example.rail.domain.model.faresystem.pricing.byRoute&#45;&gt;com.example.rail.domain.model.faresystem._foundation.monetary</title>
<path fill="none" stroke="black" d="M993.72,-238.73C981.78,-203.95 955.72,-128.07 941.58,-86.9"/>
<polygon fill="black" stroke="black" points="944.82,-85.55 938.26,-77.23 938.2,-87.82 944.82,-85.55"/>
</g>
</g>
</svg>
